<?xml version="1.0" standalone="no"?>
<!DOCTYPE svg PUBLIC "-//W3C//DTD SVG 20010904//EN"
 "http://www.w3.org/TR/2001/REC-SVG-20010904/DTD/svg10.dtd">
<svg version="1.0" xmlns="http://www.w3.org/2000/svg"
 width="830.000000pt" height="830.000000pt" viewBox="0 0 830.000000 830.000000"
 preserveAspectRatio="xMidYMid meet">
<metadata>
Created by potrace 1.14, written by Peter Selinger 2001-2017
</metadata>
<g transform="translate(0.000000,830.000000) scale(0.100000,-0.100000)"
fill="#000000" stroke="none">
<path d="M3896 7804 c-297 -54 -510 -156 -662 -317 -150 -159 -201 -294 -248
-650 -25 -183 -26 -190 -60 -236 -46 -62 -60 -130 -53 -241 13 -174 62 -304
151 -399 35 -38 70 -93 109 -173 66 -134 187 -320 276 -425 122 -144 272 -251
429 -306 79 -28 98 -31 212 -31 137 0 206 14 316 64 233 106 456 350 612 670
31 63 87 165 126 225 114 178 142 273 134 450 -3 82 -7 97 -40 156 -36 64 -37
68 -43 204 -17 353 -75 517 -249 703 -151 160 -344 262 -577 307 -101 19 -325
19 -433 -1z m-126 -930 c118 -30 262 -35 385 -15 120 21 257 29 323 20 38 -6
99 -26 159 -54 122 -57 126 -57 108 -4 -8 23 -15 46 -15 51 0 21 64 -39 98
-91 34 -53 112 -256 112 -293 0 -13 8 -18 28 -18 40 0 64 -31 72 -93 9 -63 -4
-177 -25 -234 -21 -54 -76 -103 -115 -103 -26 0 -30 -4 -30 -26 0 -36 -44
-163 -84 -242 -133 -261 -384 -471 -627 -523 -82 -18 -221 -6 -302 24 -239 92
-449 337 -587 685 -27 69 -36 82 -55 82 -31 0 -72 35 -96 81 -43 86 -50 281
-10 330 9 11 29 22 44 22 24 2 28 7 38 57 24 118 112 260 195 311 108 66 214
75 384 33z"/>
<path d="M3229 5045 c-3 -2 -105 -13 -228 -25 -245 -22 -342 -39 -439 -76
-270 -101 -502 -398 -610 -783 l-20 -71 2145 0 2145 0 -7 33 c-14 64 -77 232
-117 311 -120 240 -282 410 -475 497 -84 39 -201 65 -343 78 -63 6 -166 16
-228 21 -62 6 -126 13 -142 16 -27 6 -30 3 -66 -67 -79 -158 -207 -321 -423
-541 -74 -76 -138 -138 -142 -138 -3 0 -26 77 -49 171 l-43 172 31 61 c18 37
33 85 37 124 l7 62 -184 0 -185 0 13 -77 c7 -44 23 -97 37 -121 l24 -43 -42
-175 c-24 -96 -45 -177 -48 -180 -6 -6 -273 274 -363 381 -81 97 -169 229
-208 313 -23 48 -35 62 -51 62 -12 0 -24 -2 -26 -5z"/>
<path d="M1363 3993 c-70 -18 -124 -60 -156 -123 -28 -53 -29 -59 -24 -170 4
-81 14 -151 35 -235 17 -66 49 -210 72 -320 23 -110 97 -459 165 -775 68 -316
160 -750 206 -965 45 -214 90 -408 101 -431 36 -79 59 -91 188 -103 358 -33
1347 -51 2800 -50 624 0 1216 4 1315 8 173 6 183 8 228 34 95 56 142 162 182
409 13 84 58 315 100 513 190 907 219 1044 265 1251 27 122 68 293 91 380 38
142 42 172 43 279 1 110 -1 125 -25 170 -29 57 -92 110 -149 125 -60 16 -5374
19 -5437 3z m2785 -1473 c69 -42 95 -147 53 -216 -24 -40 -95 -69 -145 -60
-104 20 -159 159 -94 241 43 54 128 70 186 35z"/>
<path d="M1743 749 c-69 -14 -103 -57 -103 -129 0 -50 30 -84 89 -100 30 -8
693 -11 2367 -10 l2326 0 38 21 c88 50 79 159 -17 204 -36 17 -150 18 -2355
19 -1274 1 -2330 -2 -2345 -5z"/>
</g>
</svg>
