<?xml version="1.0" encoding="UTF-8" standalone="no"?>
<!-- Uploaded to: SVG Repo, www.svgrepo.com, Generator: SVG Repo Mixer Tools -->

<svg
   width="800px"
   height="800px"
   viewBox="0 0 48 48"
   fill="none"
   version="1.1"
   id="svg4"
   sodipodi:docname="telegram.svg"
   inkscape:version="1.1.2 (0a00cf5339, 2022-02-04, custom)"
   xmlns:inkscape="http://www.inkscape.org/namespaces/inkscape"
   xmlns:sodipodi="http://sodipodi.sourceforge.net/DTD/sodipodi-0.dtd"
   xmlns="http://www.w3.org/2000/svg"
   xmlns:svg="http://www.w3.org/2000/svg">
  <defs
     id="defs8" />
  <sodipodi:namedview
     id="namedview6"
     pagecolor="#ffffff"
     bordercolor="#cccccc"
     borderopacity="1"
     inkscape:pageshadow="0"
     inkscape:pageopacity="1"
     inkscape:pagecheckerboard="0"
     showgrid="false"
     inkscape:zoom="1.01"
     inkscape:cx="400"
     inkscape:cy="400.49505"
     inkscape:window-width="1920"
     inkscape:window-height="1001"
     inkscape:window-x="-9"
     inkscape:window-y="-9"
     inkscape:window-maximized="1"
     inkscape:current-layer="svg4" />
  <path
     d="m 39.993557,3.9822573 c 0,0 3.8853,-1.515 3.5615,2.16429 -0.1079,1.51502 -1.0792,6.8175197 -1.8347,12.5529197 l -2.5902,16.9897 c 0,0 -0.2158,2.4889 -2.1585,2.9218 -1.9427,0.4328 -4.8566,-1.515 -5.3963,-1.9479 -0.4317,-0.3246 -8.0943,-5.1943 -10.7925,-7.575 -0.7555,-0.6493 -1.6189,-1.9479 0.1079,-3.4629 l 11.3322,-10.8214 c 1.2951,-1.2986 2.5902,-4.3286 -2.8061,-0.6493 l -15.1095,10.2804 c 0,0 -1.7268,1.0821 -4.9644996,0.1082 l -7.01518,-2.1643 c 0,0 -2.59020997,-1.6232 1.83473,-3.2465 C 14.954957,14.046167 28.229757,8.8518673 39.993557,3.9822573 Z"
     fill="#000000"
     id="path2"
     style="fill:#f2f2f2" />
</svg>
