<?xml version="1.0" encoding="UTF-8" standalone="no"?>
<!-- Uploaded to: SVG Repo, www.svgrepo.com, Generator: SVG Repo Mixer Tools -->

<svg
   width="800px"
   height="800px"
   viewBox="0 0 24 24"
   fill="none"
   version="1.1"
   id="svg4"
   sodipodi:docname="branch.svg"
   inkscape:version="1.1.2 (0a00cf5339, 2022-02-04, custom)"
   xmlns:inkscape="http://www.inkscape.org/namespaces/inkscape"
   xmlns:sodipodi="http://sodipodi.sourceforge.net/DTD/sodipodi-0.dtd"
   xmlns="http://www.w3.org/2000/svg"
   xmlns:svg="http://www.w3.org/2000/svg">
  <defs
     id="defs8" />
  <sodipodi:namedview
     id="namedview6"
     pagecolor="#ffffff"
     bordercolor="#cccccc"
     borderopacity="1"
     inkscape:pageshadow="0"
     inkscape:pageopacity="1"
     inkscape:pagecheckerboard="0"
     showgrid="false"
     inkscape:zoom="1.01"
     inkscape:cx="400"
     inkscape:cy="321.28713"
     inkscape:window-width="1920"
     inkscape:window-height="1001"
     inkscape:window-x="-9"
     inkscape:window-y="-9"
     inkscape:window-maximized="1"
     inkscape:current-layer="svg4" />
  <path
     d="m 4.7908512,7.4448768 c 1.5845504,0 2.8690863,-1.2829375 2.8690863,-2.8655163 0,-1.5825788 -1.2845359,-2.8655163 -2.8690863,-2.8655163 -1.5845505,0 -2.8690863,1.2829375 -2.8690863,2.8655163 0,1.5825788 1.2845358,2.8655163 2.8690863,2.8655163 z m 0,0 v 9.1696522 m 0,0 c -1.5845505,0 -2.8690863,1.282949 -2.8690863,2.865516 0,1.582568 1.2845358,2.865517 2.8690863,2.865517 1.5845504,0 2.8690863,-1.282949 2.8690863,-2.865517 0,-1.582567 -1.2845359,-2.865516 -2.8690863,-2.865516 z M 19.7101,7.4448768 c 1.584539,0 2.869086,-1.2829375 2.869086,-2.8655163 0,-1.5825788 -1.284547,-2.8655163 -2.869086,-2.8655163 -1.58454,0 -2.869087,1.2829375 -2.869087,2.8655163 0,1.5825788 1.284547,2.8655163 2.869087,2.8655163 z m 0,0 c 0,1.0659378 0,1.5989124 -0.117288,2.0361901 -0.318354,1.1865991 -1.246446,2.1135361 -2.434477,2.4314941 -0.437823,0.117142 -0.971473,0.117142 -2.038773,0.117142 H 8.2337548 c -1.9014583,0 -3.4429036,1.53947 -3.4429036,3.438619"
     stroke="#000000"
     stroke-width="2.29384"
     stroke-linecap="round"
     stroke-linejoin="round"
     id="path2"
     style="fill:none;stroke:#f6f6f6;stroke-opacity:1" />
</svg>
