<?xml version="1.0" encoding="UTF-8" standalone="no"?>
<!-- Uploaded to: SVG Repo, www.svgrepo.com, Generator: SVG Repo Mixer Tools -->

<svg
   width="800px"
   height="800px"
   viewBox="0 0 24 24"
   fill="none"
   version="1.1"
   id="svg4"
   sodipodi:docname="eye_closed.svg"
   inkscape:version="1.1.2 (0a00cf5339, 2022-02-04, custom)"
   xmlns:inkscape="http://www.inkscape.org/namespaces/inkscape"
   xmlns:sodipodi="http://sodipodi.sourceforge.net/DTD/sodipodi-0.dtd"
   xmlns="http://www.w3.org/2000/svg"
   xmlns:svg="http://www.w3.org/2000/svg">
  <defs
     id="defs8" />
  <sodipodi:namedview
     id="namedview6"
     pagecolor="#ffffff"
     bordercolor="#cccccc"
     borderopacity="1"
     inkscape:pageshadow="0"
     inkscape:pageopacity="1"
     inkscape:pagecheckerboard="0"
     showgrid="false"
     inkscape:zoom="0.505"
     inkscape:cx="200"
     inkscape:cy="321.78218"
     inkscape:window-width="1920"
     inkscape:window-height="1001"
     inkscape:window-x="-9"
     inkscape:window-y="-9"
     inkscape:window-maximized="1"
     inkscape:current-layer="svg4" />
  <path
     d="M20 14.8335C21.3082 13.3317 22 12 22 12C22 12 18.3636 5 12 5C11.6588 5 11.3254 5.02013 11 5.05822C10.6578 5.09828 10.3244 5.15822 10 5.23552M12 9C12.3506 9 12.6872 9.06015 13 9.17071C13.8524 9.47199 14.528 10.1476 14.8293 11C14.9398 11.3128 15 11.6494 15 12M3 3L21 21M12 15C11.6494 15 11.3128 14.9398 11 14.8293C10.1476 14.528 9.47198 13.8524 9.1707 13C9.11386 12.8392 9.07034 12.6721 9.04147 12.5M4.14701 9C3.83877 9.34451 3.56234 9.68241 3.31864 10C2.45286 11.1282 2 12 2 12C2 12 5.63636 19 12 19C12.3412 19 12.6746 18.9799 13 18.9418"
     stroke="#000000"
     stroke-width="1.5"
     stroke-linecap="round"
     stroke-linejoin="round"
     id="path2"
     style="stroke:#ffffff;stroke-opacity:1" />
</svg>
