<?xml version="1.0" encoding="UTF-8"?>
<svg width="800px" height="800px" fill="none" version="1.1" viewBox="0 0 32 32" xmlns="http://www.w3.org/2000/svg">
<path d="m7.7658 30.822c2.2563 1.2723 5.1176 0.48543 10.84-1.0883 5.7225-1.5737 8.5839-2.3607 9.8831-4.6107 1.2994-2.25 0.52926-5.0847-1.0109-10.754-1.5402-5.6691-2.3103-8.5037-4.5666-9.7759-2.2562-1.2723-5.1176-0.48538-10.84 1.0884-5.7226 1.5738-8.5839 2.3606-9.8832 4.6107-1.2993 2.2501-0.52922 5.0846 1.011 10.754 1.5402 5.6691 2.3103 8.5037 4.5665 9.7759z" fill="#ff7c3e" stroke-width="1.2526"/>
<path d="m13.034 9.875c0.02201 0.060065 0.06602 0.18014 0.1357 0.31295 0.06968 0.13281 0.16502 0.27835 0.26312 0.40389 0.0981 0.12553 0.19894 0.23105 0.33463 0.3493 0.13568 0.11825 0.3062 0.24924 0.52256 0.40389s0.47855 0.33294 0.65633 0.51044 0.27115 0.3542 0.35634 0.51328c0.08519 0.15908 0.1622 0.30053 0.25113 0.47405 0.08893 0.17352 0.18977 0.3791 0.2769 0.53681 0.08713 0.15772 0.16053 0.26755 0.28253 0.34316 0.12201 0.0756 0.2926 0.11699 0.39164 0.15499 0.09904 0.03799 0.12654 0.07255 0.15678 0.07435 0.03024 0.0018 0.06324-0.02913 0.0889-0.07459 0.02566-0.04547 0.044-0.1055 0.07151-0.16737 0.0275-0.06187 0.06417-0.12554 0.10634-0.19559 0.04217-0.07005 0.08984-0.14646 0.13201-0.21468 0.04217-0.06822 0.07884-0.12826 0.10359-0.18192 0.02475-0.05366 0.03759-0.10097 0.04308-0.17283 0.0055-0.07186 0.0036-0.16827 0.01094-0.24742 0.0073-0.07915 0.02382-0.14101 0.07057-0.22744 0.04676-0.08643 0.12376-0.1974 0.19161-0.28019 0.06784-0.08278 0.12652-0.13737 0.17328-0.17467 0.04676-0.0373 0.0816-0.05731 0.10726-0.09096 0.02566-0.03364 0.04216-0.08095 0.04949-0.1246 0.0073-0.04365 0.0055-0.08368 0.01277-0.12008 0.0073-0.0364 0.02381-0.06915 0.04124-0.10463 0.01742-0.03548 0.03576-0.07368 0.04309-0.12189 0.0073-0.0482 0.0037-0.10642-0.01283-0.16827-0.0165-0.06185-0.04584-0.12735-0.08434-0.20286-0.0385-0.0755-0.08617-0.16101-0.12193-0.2356-0.03576-0.07459-0.05959-0.13827-0.07427-0.22106-0.01467-0.08279-0.02017-0.18467-0.02476-0.41664-0.0046-0.23197-0.0083-0.59401-0.0101-0.79231-0.0018-0.19831-0.0018-0.23287-0.0073-0.23471-0.0055-0.00184-0.01651 0.029106-0.06874 0.097308s-0.14572 0.17373-0.2594 0.29381-0.24752 0.25471-0.37036 0.35659c-0.12284 0.10188-0.23469 0.17101-0.36486 0.25015-0.13018 0.07914-0.27869 0.16829-0.39695 0.22924-0.11826 0.06095-0.20626 0.0937-0.33369 0.11644-0.12743 0.02275-0.29428 0.03548-0.46663 0.04275-0.17235 0.0073-0.3502 0.0091-0.51333-0.01185-0.16313-0.02092-0.31163-0.06459-0.45923-0.12281-0.1476-0.05822-0.29428-0.13099-0.44096-0.21559-0.14668-0.0846-0.29337-0.18102-0.41071-0.25834-0.11734-0.07732-0.20535-0.13554-0.27045-0.19102-0.0651-0.055482-0.10727-0.10825-0.14027-0.14827-0.033-0.040024-0.05684-0.067318-0.07517-0.086424s-0.03117-0.030019-0.03485-0.019094c-0.0037 0.010925 0.0018 0.043658 0.01098 0.097335 0.0092 0.053678 0.022 0.12827 0.02841 0.16554 0.0064 0.037271 0.0064 0.037334 0.02845 0.097399z" fill="#c18b66" stroke-width="0"/>
<path d="m13.36 10.521c0.0666 0.07325 0.19976 0.21971 0.36622 0.374 0.16646 0.1543 0.36619 0.31644 0.54801 0.45766s0.34571 0.26152 0.49679 0.37136c0.15109 0.10984 0.28937 0.20922 0.39948 0.28767 0.11011 0.07846 0.19206 0.13599 0.26889 0.19615 0.07683 0.06016 0.14852 0.12292 0.20229 0.20139 0.05377 0.07847 0.08962 0.17261 0.15364 0.30598 0.06402 0.13338 0.15621 0.30598 0.24584 0.45767 0.08963 0.15169 0.17669 0.28244 0.2612 0.40536 0.08451 0.12292 0.16645 0.23799 0.21258 0.29814 0.04613 0.06016 0.05631 0.06535 0.08189 0.01828s0.06655-0.14645 0.12801-0.24323c0.06146-0.09677 0.14341-0.19092 0.20999-0.29553 0.06658-0.1046 0.11779-0.21967 0.1434-0.31642 0.02561-0.09675 0.02561-0.17521 0.03073-0.26413 0.0051-0.08892 0.01537-0.1883 0.06403-0.29816 0.04866-0.10986 0.13572-0.23015 0.21511-0.32692 0.07939-0.09677 0.15109-0.16999 0.19206-0.21707 0.04098-0.04708 0.0512-0.06797 0.06401-0.09674s0.02817-0.06538 0.03586-0.12029c0.0077-0.05491 0.0077-0.12814 0.02305-0.18831 0.01536-0.06017 0.04609-0.10724 0.06145-0.15692 0.01537-0.04967 0.01537-0.10198 0.0026-0.17259-0.0128-0.07061-0.0384-0.15952-0.08449-0.26937-0.04609-0.10984-0.11267-0.2406-0.14853-0.33737-0.03586-0.09677-0.04099-0.15953-0.04099-0.23799-3e-6 -0.07846 0.0051-0.17261 7e-6 -0.25629-0.0051-0.08368-0.02048-0.15691-0.0077-0.19617 0.01282-0.039256 0.05378-0.044487 0.10756-0.02355 0.05378 0.020937 0.12037 0.068016 0.17926 0.13079 0.05889 0.06277 0.11011 0.14123 0.14851 0.21707 0.03841 0.07585 0.06401 0.14907 0.08962 0.23014 0.0256 0.08107 0.05121 0.16999 0.06144 0.25367 0.01023 0.08368 0.0051 0.16214 0.04098 0.25106 0.03587 0.08892 0.11269 0.1883 0.20233 0.2589 0.08963 0.0706 0.19207 0.11244 0.32011 0.15952 0.12804 0.04707 0.28168 0.09938 0.39436 0.14384 0.11268 0.04447 0.18438 0.08108 0.274 0.13077 0.08963 0.04969 0.19718 0.11246 0.3201 0.17522 0.12292 0.06276 0.2612 0.12553 0.39436 0.1883 0.13316 0.06277 0.2612 0.12553 0.38668 0.19353 0.12548 0.068 0.24839 0.14122 0.36363 0.19875s0.22279 0.09938 0.4507 0.20399c0.22791 0.10461 0.57617 0.27199 0.84762 0.41583 0.27144 0.14384 0.46606 0.26414 0.65044 0.37921 0.18438 0.11507 0.35851 0.22491 0.49166 0.33476s0.22534 0.21969 0.29191 0.32953c0.06657 0.10984 0.10754 0.21968 0.16132 0.37137 0.05378 0.15169 0.12036 0.34521 0.18181 0.54135 0.06146 0.19614 0.11779 0.3949 0.16645 0.53874 0.04866 0.14384 0.08963 0.23275 0.12292 0.30337 0.03329 0.07062 0.0589 0.12292 0.10243 0.27199 0.04353 0.14907 0.10498 0.3949 0.05309 1.0457-0.0519 0.65081-0.21712 1.7066-0.35768 2.5895-0.14056 0.88295-0.25644 1.593-0.39406 2.0886-0.13762 0.49559-0.29696 0.77668-0.51425 1.1021s-0.49252 0.69531-0.71704 0.93201-0.39836 0.34026-0.60117 0.51779c-0.20281 0.17754-0.43458 0.42903-0.56856 0.67784s-0.17014 0.49492-0.16773 0.71212c0.0024 0.21721 0.04338 0.4055 0.09972 0.60426 0.05634 0.19876 0.12804 0.40798 0.18438 0.56228 0.05634 0.1543 0.09731 0.25367 0.14341 0.34782s0.09731 0.18307 0.13188 0.25107c0.03457 0.068 0.05249 0.11507 0.06016 0.16017 0.0077 0.0451 0.0051 0.08827 0.0025 0.12553s-0.0051 0.06866-0.0039 0.10724c0.0013 0.03858 0.0064 0.08433 0.0205 0.13141 0.01409 0.04708 0.03714 0.09545 0.06082 0.15626 0.02368 0.0608 0.04801 0.13404 0.07426 0.21511 0.02625 0.08107 0.05441 0.16999 0.07331 0.23434 0.0189 0.06435 0.02851 0.10404 0.03814 0.1438-0.3743 0.1087-0.74856 0.2174-1.2433 0.35707-0.49476 0.13967-1.233 0.34442-1.8061 0.50228-0.57314 0.15786-1.4725 0.40427-2.3141 0.62751-0.84161 0.22324-1.6254 0.42331-2.0437 0.52857-0.41831 0.10527-0.81825 0.20282-1.1564 0.27464-0.33816 0.07182-0.68111 0.13414-1.0358 0.18724-0.35468 0.0531-0.72106 0.09697-1.1037 0.12259-0.38266 0.02561-0.7816 0.03296-1.0813 0.02734-0.29968-0.0056-0.50005-0.02424-0.70029-0.06073s-0.40039-0.09089-0.60049-0.14527c0.026972-0.12897 0.053933-0.2579 0.075104-0.36227 0.021171-0.10438 0.036536-0.18414 0.060224-0.3306s0.055697-0.35959 0.076824-0.54135c0.021127-0.18176 0.031369-0.33214 0.051854-0.5152s0.051214-0.39882 0.078102-0.56816 0.049935-0.29225 0.088347-0.43414c0.038412-0.14188 0.092188-0.30272 0.137-0.47924s0.080669-0.36874 0.1018-0.56227c0.02113-0.19352 0.027533-0.38836 0.030735-0.4858 0.0032-0.09744-0.00448-0.59564-0.014069-0.6198-0.00959-0.02416-0.028795-0.07254-0.066557-0.10003-0.037762-0.02748-0.094094-0.03402-0.12229-0.03729-0.028192-0.0033-0.43533-0.0033-0.4878-0.01046-0.052474-0.0072-0.15746-0.02157-0.25989-0.03399s-0.2023-0.02288-0.27721-0.03595c-0.074906-0.01307-0.12483-0.02876-0.16517-0.05359-0.04034-0.02483-0.07107-0.05883-0.10564-0.07846-0.034567-0.01963-0.072964-0.02486-0.15299-0.02944-0.080031-0.0046-0.20167-0.0085-0.3534-0.0098-0.15173-0.0013-0.33354-1.2e-5 -0.49231-0.01832-0.15866-0.018331-0.29438-0.056252-0.40962-0.10789s-0.20998-0.11702-0.28041-0.18828c-0.070431-0.071258-0.11652-0.1484-0.16582-0.25498s-0.1018-0.24256-0.15174-0.39752c-0.049938-0.15496-0.09731-0.32886-0.1338-0.47532-0.036493-0.14646-0.062101-0.26545-0.081949-0.3779-0.019848-0.11246-0.033932-0.21838-0.041615-0.31449-0.00768-0.09612-0.00896-0.18241-0.014716-0.2589-0.00576-0.07649-0.016002-0.14318-0.027526-0.21706s-0.024327-0.15495-0.042889-0.24126c-0.018562-0.0863-0.042888-0.17783-0.062735-0.25368-0.019847-0.07585-0.035211-0.13599-0.043539-0.24584-0.00833-0.10985-0.0096-0.26937-0.010881-0.40275-0.00128-0.13338-0.00255-0.2406-0.011513-0.38902-0.00896-0.14841-0.025604-0.33802-0.037128-0.47074-0.011524-0.13273-0.017925-0.20856-0.030726-0.30533-0.012802-0.09677-0.032007-0.21445-0.042252-0.33671s-0.011521-0.2491 0.00384-0.38903c0.015363-0.13992 0.047372-0.29291 0.10947-0.51848 0.062098-0.22557 0.15428-0.5237 0.23623-0.77346 0.081946-0.24976 0.15365-0.45113 0.21191-0.61654 0.058258-0.16542 0.10307-0.29487 0.1306-0.43282 0.027531-0.13795 0.037774-0.2844 0.049297-0.42759 0.011524-0.14318 0.024329-0.2831 0.035852-0.39098 0.011524-0.10788 0.021767-0.18372 0.046733-0.29553s0.064657-0.25956 0.10755-0.40079c0.042893-0.14123 0.088986-0.27591 0.15237-0.41779 0.06338-0.14188 0.14404-0.29095 0.20486-0.40537 0.06082-0.11442 0.10179-0.19418 0.1338-0.27982 0.03201-0.08564 0.055057-0.17718 0.074263-0.26282 0.019206-0.08565 0.034572-0.16541 0.057619-0.24714 0.023047-0.08173 0.053774-0.16542 0.10115-0.24585 0.047379-0.08043 0.1114-0.15758 0.1735-0.23081 0.062099-0.07323 0.12228-0.14253 0.17349-0.20137 0.051216-0.05884 0.093468-0.10722 0.13636-0.17914 0.042892-0.07191 0.086424-0.16736 0.12036-0.24713 0.033932-0.07977 0.058256-0.14383 0.085783-0.20464 0.027528-0.06081 0.058257-0.11834 0.092829-0.18372 0.034572-0.06538 0.072984-0.13861 0.12549-0.20335 0.052504-0.06474 0.11908-0.12096 0.20871-0.17785 0.089636-0.05688 0.20231-0.11442 0.34827-0.18438 0.14597-0.06996 0.32522-0.15234 0.52304-0.23603 0.19782-0.08369 0.41421-0.16868 0.67093-0.27068 0.25672-0.102 0.55377-0.22099 0.80601-0.32168 0.25224-0.10069 0.45966-0.18306 0.64404-0.25695 0.18438-0.07388 0.3457-0.13926 0.48911-0.19549 0.14341-0.05623 0.26888-0.1033 0.37131-0.14645 0.10243-0.04315 0.18181-0.08238 0.24775-0.11899 0.06594-0.03661 0.11843-0.07061 0.17348-0.12422 0.05505-0.05361 0.11267-0.12683 0.16004-0.21378 0.04737-0.08695 0.0845-0.18763 0.12164-0.29355 0.03713-0.10592 0.07426-0.21707 0.11652-0.31776 0.04226-0.10069 0.08963-0.19091 0.12484-0.24519 0.03522-0.054276 0.05826-0.072579 0.07556-0.070593 0.0173 0.00199 0.02882 0.024212 0.05315 0.081094 0.02433 0.05688 0.06146 0.14842 0.09924 0.22295 0.03778 0.07454 0.07618 0.13206 0.09537 0.16081 0.01919 0.02874 0.01907 0.02884 0.08567 0.10209z" fill="#1a181b" stroke="#1d3557" stroke-width=".042096px"/>
<path d="m14.693 10.521c0.07727 0.02341 0.23179 0.07024 0.4681 0.05033s0.55441-0.10654 0.86164-0.23802c0.30723-0.13149 0.60358-0.30782 0.86279-0.5286 0.25921-0.22077 0.48128-0.48597 0.63101-0.70766 0.14973-0.22168 0.22711-0.39984 0.29622-0.62773 0.0691-0.22789 0.12992-0.50549 0.14881-0.76956 0.01889-0.26407-0.0042-0.51458-0.01684-0.67574-0.01269-0.16116-0.01502-0.23296-5e-3 -0.26945 0.01001-0.03649 0.03233-0.03766 0.07949-0.052903 0.04717-0.015243 0.11918-0.044553 0.18424-0.094789 0.06506-0.050236 0.12316-0.1214 0.16438-0.19618 0.04122-0.074778 0.06554-0.15318 0.08046-0.25876 0.01491-0.10558 0.02041-0.23835 0.01442-0.32912-6e-3 -0.090764-0.02346-0.13954-0.03508-0.19524-0.01162-0.055702-0.01738-0.11833-0.01158-0.18772 0.0058-0.069387 0.02313-0.14553 0.02792-0.23071 0.0048-0.085179-3e-3 -0.17941-0.01932-0.27792-0.01634-0.098511-0.04125-0.20131-0.08538-0.29789-0.04413-0.096587-0.10748-0.18697-0.16096-0.24829-0.05348-0.061324-0.09709-0.093586-0.14947-0.099853-0.05239-0.00627-0.11353 0.013484-0.1654 0.044348-0.05187 0.030863-0.09444 0.072822-0.12719 0.11262-0.03274 0.039802-0.05565 0.077426-0.09032 0.09367s-0.08113 0.011098-0.11003-0.014832c-0.0289-0.02593-0.04022-0.072651-0.05423-0.2082-0.014025-0.13554-0.030725-0.35989-0.053927-0.57609-0.023203-0.2162-0.05291-0.42426-0.10542-0.60983s-0.12784-0.34867-0.24968-0.55216-0.29022-0.44737-0.46716-0.64112c-0.17695-0.19376-0.36246-0.33738-0.55108-0.45884-0.18862-0.12146-0.38035-0.22075-0.6299-0.29432-0.24955-0.07357-0.5569-0.12141-0.84033-0.13264-0.28342-0.011235-0.54289 0.014134-0.80221 0.086811-0.25932 0.072677-0.51847 0.19266-0.7287 0.32406s-0.37155 0.27419-0.51568 0.42957-0.27108 0.32336-0.41402 0.57308c-0.14294 0.24972-0.30185 0.58118-0.41204 0.87273-0.11019 0.29155-0.17166 0.54316-0.19258 0.79882-0.02093 0.25566-0.0013 0.51535 0.01969 0.70304 0.021 0.1877 0.04339 0.3034 0.07268 0.40479 0.02928 0.10139 0.06545 0.18845 0.10425 0.27467 0.03879 0.086223 0.08021 0.1716 0.12806 0.2952s0.10214 0.28543 0.14139 0.40072c0.03925 0.1153 0.06345 0.18406 0.07393 0.23509 0.01048 0.051027 0.0072 0.084322-0.0228 0.076899-0.03005-0.00742-0.08693-0.05556-0.14976-0.10883-0.06283-0.053267-0.13161-0.11165-0.19328-0.12903-0.06167-0.017373-0.11622 0.0063-0.16294 0.050612-0.04672 0.044315-0.08561 0.10927-0.09528 0.18597-0.0097 0.076694 0.0099 0.1651 0.03643 0.25527 0.02656 0.090172 0.06015 0.1821 0.09063 0.269 0.03048 0.086893 0.05785 0.16874 0.08289 0.26041 0.02504 0.091671 0.04776 0.19316 0.08028 0.28846 0.03252 0.095303 0.07484 0.18442 0.11587 0.27596 0.04103 0.091545 0.08075 0.18552 0.13181 0.27181 0.05106 0.086293 0.11344 0.16489 0.17805 0.22161 0.06461 0.056716 0.13146 0.091552 0.18914 0.10415 0.05769 0.0126 0.10621 0.00297 0.14814-0.010573 0.04193-0.013545 0.07726-0.031007 0.09977-0.035263 0.0225-0.00426 0.03224 0.00473 0.05129 0.060042 0.01905 0.055314 0.04745 0.15698 0.10689 0.30505 0.05944 0.14808 0.1499 0.34255 0.25988 0.5398 0.10998 0.19725 0.23946 0.39726 0.39208 0.56059 0.15262 0.16332 0.32836 0.28994 0.48739 0.37864 0.15902 0.0887 0.30131 0.13947 0.42024 0.17158 0.11893 0.03212 0.21451 0.04558 0.26229 0.05231 0.04777 0.0067 0.04781 0.0067 0.12508 0.03014z" fill="#c18b66" stroke="#c18b66" stroke-width=".015262px"/>
<g transform="matrix(.041655 -.00014788 .0001448 .042541 -18.243 13.602)" stroke="#161616" stroke-width="1px">
<path d="m726.63-176.02c0.54965-0.51175 1.265-1.0955 2.0063-1.6453s1.5083-1.0655 2.4759-1.6461 2.1356-1.2261 3.3343-1.9792c1.1987-0.75305 2.4282-1.6137 3.6422-2.9045s2.4127-3.0121 4.58-4.9334c2.1672-1.9213 5.3024-4.0422 8.1612-5.533s5.4407-2.3514 7.7308-2.92c2.2901-0.56861 4.288-0.84525 6.7164-0.93738 2.4284-0.0921 5.287 7e-5 7.4233 0.23074 2.1364 0.23068 3.5503 0.59952 4.8874 1.2299s2.5973 1.5218 3.5963 2.2441c0.99897 0.72236 1.7367 1.2756 2.29 1.6598 0.55331 0.38415 0.92215 0.59931 1.5211 0.42982 0.59892-0.16948 1.4288-0.72275 2.7507-1.399s3.1354-1.4754 5.2104-1.9672c2.075-0.49174 4.4111-0.67617 5.9788-0.72217s2.3669 0.0462 2.8889-0.0154c0.52202-0.0616 0.76792-0.27673 1.2596-1.0296 0.49169-0.7529 1.2294-2.0438 2.6588-3.8883 1.4294-1.8444 3.5502-4.2419 5.1642-5.7328 1.614-1.4909 2.7205-2.0749 4.611-2.8895 1.8905-0.81457 4.5646-1.8596 6.6242-2.4897 2.0596-0.63008 3.5042-0.84524 5.3332-0.92201 1.829-0.0768 4.0421-0.0153 5.748 0.0154s2.9047 0.0307 4.0728 0.1538c1.1681 0.12308 2.3054 0.36897 3.412 0.67643 1.1066 0.30746 2.1824 0.67631 3.1352 1.1068 0.95287 0.43047 1.7828 0.92227 2.3513 1.3374 0.56853 0.41514 0.8759 0.75325 1.2141 1.0759 0.33818 0.32268 0.70702 0.63005 1.2142 0.81408 0.50718 0.18403 1.1527 0.2455 1.9672 0.27619 0.81452 0.0307 1.7981 0.0307 2.6894-0.0155s1.6905-0.13837 2.6324-0.68149c0.94191-0.54312 2.0273-1.5372 2.7514-1.7812 0.72404-0.24404 1.0858 0.26079 1.2193 0.68555s0.0396 0.7699-0.2959 1.1694c-0.33548 0.39953-0.91285 0.85421-1.4358 1.2336s-0.99158 0.68356-1.4872 1.0354c-0.49563 0.3519-1.0182 0.75149-1.4794 1.2742s-0.86081 1.1682-1.0759 1.645c-0.21512 0.47675-0.24586 0.78412-0.21504 1.7832 0.0308 0.99907 0.12302 2.6896 0.12297 4.5646s-0.0923 3.9344-0.23062 5.5634c-0.13837 1.629-0.32279 2.8278-0.6302 4.1802-0.30742 1.3524-0.73774 2.8585-1.3525 4.3492-0.61477 1.4906-1.4139 2.966-2.336 4.4106-0.9221 1.4446-1.9672 2.8585-3.0275 4.011-1.0604 1.1526-2.1362 2.0439-3.4117 2.9353-1.2755 0.89136-2.7509 1.7827-4.0572 2.4436s-2.4435 1.0912-3.8573 1.46c-1.4138 0.36889-3.1044 0.67626-4.6259 0.90682s-2.8739 0.38424-4.3954 0.38434-3.212-0.15358-4.9794-0.66053-3.6116-1.3676-5.333-2.4125-3.3197-2.2744-4.6569-3.5499c-1.3372-1.2755-2.413-2.5972-3.3506-3.9957-0.93762-1.3985-1.7368-2.8739-2.4746-4.4723s-1.414-3.3196-1.8598-4.7797c-0.44584-1.4601-0.661-2.6588-0.76868-3.6271-0.10769-0.96832-0.10769-1.706-0.16878-2.167-0.0611-0.461-0.18404-0.64542-0.76791-0.78427s-1.6289-0.23106-2.6588-0.16971c-1.0299 0.0614-2.0442 0.27651-3.1354 0.47632-1.0912 0.19981-2.2592 0.38423-3.1969 0.6301-0.93769 0.24587-1.6446 0.55324-2.3362 0.84525s-1.3678 0.56864-1.7678 0.87641c-0.39995 0.30776-0.52289 0.64587-0.55351 1.7527-0.0306 1.1068 0.0309 2.9818 0.15387 4.6109 0.12301 1.6292 0.30743 3.0123 0.41495 4.165 0.10753 1.1526 0.13826 2.0747 0.0613 3.3503-0.0769 1.2756-0.26134 2.9046-0.64562 4.7181-0.38427 1.8134-0.96827 3.8113-1.6752 5.4402-0.70696 1.6289-1.5369 2.8891-2.7202 4.303-1.1833 1.4138-2.7202 2.9814-4.5028 4.3645-1.7826 1.3831-3.8113 2.5819-5.7476 3.4733-1.9363 0.89139-3.7806 1.4754-5.7169 1.8443-1.9363 0.36891-3.965 0.5226-5.8092 0.43054-1.8442-0.0921-3.504-0.43017-5.2406-0.96796-1.7367-0.53779-3.5502-1.2755-5.2408-2.2128s-3.2582-2.0746-4.6262-3.2886-2.5359-2.505-3.5965-3.8421c-1.0605-1.337-2.0134-2.7202-2.7819-3.9958-0.76855-1.2756-1.3526-2.4436-1.7983-3.4272s-0.75314-1.7828-1.0913-2.7203c-0.33814-0.93752-0.70699-2.0133-1.0295-2.705-0.32248-0.69167-0.59912-0.99905-1.0448-1.1686-0.44565-0.16955-1.0604-0.20028-1.6445-0.20034-0.58407-5e-5 -1.1373 0.0307-1.9062 0.3995-0.76883 0.36881-1.7524 1.0758-2.7363 1.848-0.98389 0.77226-1.9679 1.6097-2.6088 1.5807-0.64091-0.029-0.93897-0.92579-0.89638-1.5946 0.0426-0.66876 0.4263-1.1083 0.97595-1.6201z" fill="#161616"/>
<path d="m739.62-178.64c0.0217-1.152 0.0652-2.1083 0.22813-3.0539 0.16294-0.94563 0.44548-1.8802 1.0976-2.902 0.65213-1.0218 1.6736-2.1303 3.2604-3.5106 1.5868-1.3802 3.7385-3.0321 5.6622-4.2493 1.9237-1.2172 3.619-1.9996 5.3905-2.5973 1.7716-0.5977 3.619-1.0106 5.5643-1.3258s3.9884-0.53247 5.836-0.56497c1.8476-0.0325 3.4994 0.11964 4.8361 0.29358 1.3367 0.17394 2.3582 0.36955 3.5646 0.75005 1.2063 0.3805 2.5973 0.94559 3.7166 1.587 1.1193 0.64139 1.9669 1.3586 2.782 2.1085 0.81503 0.74991 1.5975 1.5324 2.2058 2.3692s1.0431 1.728 1.3907 2.7061c0.34761 0.97806 0.60843 2.043 0.7822 3.2058s0.26071 2.4234 0.33679 3.4775c0.0761 1.0542 0.14128 1.9018 0.17384 2.869 0.0326 0.96717 0.0326 2.0539-0.0109 3.0754-0.0435 1.0215-0.13045 1.9778-0.4022 2.9774-0.27175 0.99959-0.72818 2.0428-1.3042 3.173-0.57596 1.1301-1.2715 2.3473-1.9996 3.4448-0.72809 1.0975-1.4888 2.0756-2.4016 3.1405-0.91283 1.065-1.9778 2.2169-3.1622 3.1514-1.1844 0.93449-2.4884 1.6517-3.7272 2.2494-1.2388 0.59771-2.4125 1.0759-3.7816 1.4237-1.3691 0.34781-2.934 0.56515-4.488 0.71733-1.554 0.15218-3.0972 0.23912-4.4229 0.15234-1.3257-0.0868-2.4342-0.34759-3.7383-0.78219-1.3041-0.4346-2.8038-1.0432-4.0536-1.6734-1.2498-0.63018-2.2496-1.2822-3.2603-2.1406-1.0108-0.8584-2.0323-1.9234-3.1082-3.184-1.076-1.2606-2.2061-2.7168-2.9996-3.8687-0.79344-1.1519-1.2499-1.9996-1.728-2.9124-0.47819-0.91287-0.97808-1.8909-1.3586-2.9451-0.38054-1.0542-0.64135-2.1844-0.7719-3.4233-0.13054-1.239-0.13054-2.5865-0.10883-3.7385z" fill="#c18b66"/>
<path d="m804.51-192.48c0.0154 0.59989 0.0461 1.7987 0.58425 3.7506 0.53814 1.952 1.5832 4.6568 2.2902 6.3628 0.70705 1.7059 1.0759 2.4129 1.9521 3.6424 0.87617 1.2295 2.2593 2.9815 3.7195 4.4568 1.4602 1.4753 2.997 2.674 4.6569 3.4883 1.6599 0.81426 3.4426 1.2446 5.2407 1.4596 1.7981 0.21502 3.6116 0.21502 5.548 0.0152 1.9364-0.19988 3.9958-0.59946 5.9936-1.2604 1.9978-0.6609 3.9342-1.583 5.6554-2.6742s3.2273-2.3514 4.5643-3.6116 2.505-2.5204 3.5962-4.1186c1.0911-1.5982 2.1054-3.5346 2.751-5.4094s0.92216-3.6883 0.96838-5.6861c0.0462-1.9978-0.13821-4.1802-0.72199-6.2857s-1.5674-4.1341-2.6276-5.7787c-1.0603-1.6446-2.1976-2.9048-3.9188-4.0424-1.7212-1.1376-4.0265-2.1519-6.501-2.7669-2.4745-0.61498-5.1179-0.83014-7.7-0.79949-2.5821 0.0307-5.1025 0.30728-7.4234 0.81441-2.3209 0.50713-4.4417 1.2448-6.4091 2.2131-1.9674 0.96827-3.7809 2.167-5.3487 3.6272s-2.8895 3.1815-3.781 4.5802c-0.89144 1.3987-1.3525 2.4745-1.7982 3.658-0.44569 1.1835-0.87601 2.4744-1.0911 3.1196-0.21506 0.6452-0.21505 0.6452-0.19967 1.2451z" fill="#c18b66"/>
</g>
<path d="m13.106 8.6046c0.02786 0.00443 0.08352 0.013276 0.1408 0.021294 0.05728 0.00802 0.11618 0.015208 0.17508 0.022399 0.0589 0.00719 0.11779 0.014384 0.16771 0.014053 0.04992-3.31e-4 0.0909-0.00818 0.11969-0.028106 0.02879-0.019928 0.04543-0.051965 0.04992-0.10687 0.0045-0.054908-0.0032-0.13271-0.0096-0.20725-0.0064-0.074537-0.01152-0.1458-9.64e-4 -0.20956 0.01056-0.063759 0.0368-0.11999 0.07074-0.16446 0.03394-0.04447 0.07556-0.077166 0.13606-0.1177 0.0605-0.040535 0.13988-0.088914 0.21671-0.13305 0.07683-0.044135 0.15108-0.084014 0.23111-0.12422 0.08003-0.040211 0.16581-0.080746 0.22984-0.10853 0.06402-0.027788 0.10627-0.042822 0.15077-0.052628 0.0445-0.00981 0.09124-0.014383 0.13158-0.013722 0.04034 6.614e-4 0.07426 0.00654 0.10147 0.014726 0.02721 0.00818 0.04769 0.018641 0.07298 0.026807 0.02529 0.00817 0.05538 0.014053 0.08418 0.010445 0.0288-0.00361 0.05631-0.01668 0.09536-0.039235s0.08963-0.054595 0.14949-0.081076c0.05987-0.026482 0.12901-0.047404 0.22889-0.059175 0.09988-0.01177 0.23048-0.014394 0.32715-0.014729 0.09668-3.355e-4 0.1594 0.00161 0.2135 0.00946 0.0541 0.00785 0.09955 0.021575 0.13636 0.033016 0.03681 0.011441 0.06499 0.020599 0.10372 0.041857 0.03873 0.021259 0.08802 0.0546 0.12995 0.093512 0.04193 0.038912 0.0765 0.083376 0.0973 0.11836 0.02079 0.034982 0.02783 0.060469 0.03551 0.092502 0.0077 0.032032 0.016 0.070619 0.02497 0.10299 9e-3 0.032373 0.01856 0.058506 0.02945 0.082697s0.02305 0.046417 0.05091 0.061106c0.02785 0.014689 0.07138 0.021881 0.1082 0.020565 0.03681-0.00132 0.06689-0.01112 0.12066-0.040541 0.05377-0.029421 0.13123-0.078453 0.20933-0.13174 0.0781-0.053286 0.15684-0.11082 0.23238-0.17751 0.07554-0.066687 0.14788-0.14253 0.19621-0.2043 0.04833-0.061777 0.07266-0.10951 0.08706-0.1533 0.0144-0.043791 0.01888-0.083664 0.02497-0.15521 0.0061-0.071542 0.01377-0.17473 0.0073-0.27802-0.0065-0.10329-0.02716-0.20668-0.05265-0.29408-0.02549-0.087405-0.05582-0.15882-0.07507-0.23105-0.01925-0.07223-0.02739-0.14528-0.02559-0.19753 0.0018-0.052254 0.01357-0.083693 0.03261-0.098962s0.04528-0.01435 0.06339-0.00925c0.0181 0.0051 0.02807 0.014348 0.04978 0.098961 0.02172 0.084613 0.05521 0.24457 0.07965 0.36939s0.03983 0.21451 0.04934 0.32316c0.0095 0.10864 0.01315 0.23623 0.01541 0.35274 0.0023 0.11651 0.0032 0.22191 5e-3 0.30328s0.0045 0.1387 0.0063 0.23764c0.0018 0.098932 0.0027 0.23947-2.2e-5 0.35643-0.0027 0.11696-0.0091 0.21036-0.01948 0.30698-0.01041 0.096625-0.0249 0.19648-0.04527 0.30882s-0.04663 0.23716-0.07877 0.34858-0.07017 0.20942-0.11996 0.30697c-0.0498 0.097544-0.11136 0.19463-0.18243 0.2968-0.07107 0.10217-0.15165 0.20942-0.23222 0.3042-0.08058 0.094773-0.16115 0.17706-0.23811 0.24825-0.07696 0.07119-0.15029 0.1313-0.22181 0.18677-0.07152 0.05548-0.14124 0.10633-0.21004 0.14886-0.0688 0.04253-0.13671 0.07674-0.20326 0.11512-0.06655 0.03837-0.13172 0.0809-0.20868 0.12251-0.07695 0.04161-0.16568 0.08229-0.2535 0.10818-0.08781 0.02589-0.17473 0.03699-0.28247 0.04485-0.10774 0.0079-0.23629 0.01248-0.35263 0.01202-0.11634-4.59e-4 -0.22046-6e-3 -0.33182-0.02496-0.11136-0.01895-0.22996-0.05131-0.3454-0.09245s-0.2277-0.09107-0.3318-0.14284c-0.1041-0.05177-0.20006-0.1054-0.3069-0.1669-0.10689-0.061486-0.22458-0.13083-0.34002-0.21035s-0.22861-0.1692-0.32006-0.26536c-0.091452-0.096157-0.16117-0.19879-0.23542-0.32408-0.074246-0.12529-0.15301-0.27322-0.21322-0.39204s-0.10186-0.2085-0.15663-0.33009-0.12268-0.27508-0.17997-0.42759c-0.057294-0.15251-0.10397-0.30403-0.14007-0.42045-0.03611-0.11642-0.06164-0.19771-0.08649-0.2875-0.02485-0.08979-0.04901-0.18806-0.06607-0.25477-0.01706-0.066705-0.02701-0.10184-0.02748-0.13052-4.65e-4 -0.028677 0.0086-0.050869 0.02716-0.067992 0.01857-0.017122 0.04664-0.029138 0.08305-0.028406 0.03641 7.316e-4 0.08111 0.014185 0.11286 0.064425 0.03175 0.05024 0.05056 0.13721 0.07266 0.2377s0.04747 0.21448 0.07612 0.32935c0.02864 0.11487 0.06055 0.23062 0.07697 0.28847 0.01642 0.057847 0.01727 0.057847 0.0218 0.0796 0.0045 0.021753 0.01268 0.065208 0.03533 0.10913s0.05977 0.088302 0.09418 0.12482 0.0661 0.06518 0.09462 0.083198c0.02853 0.018017 0.05388 0.025412 0.08374 0.025402 0.02986-1.08e-5 0.06427-0.00741 0.08146-0.011102 0.01719-0.00369 0.01727-0.00362 0.04513 8.109e-4z" fill="#161616" stroke="#161616" stroke-width=".042096px"/>
<path d="m14.192 8.3665c0.01721 0.037011 0.05162 0.11098 0.09961 0.17847 0.04799 0.067492 0.10956 0.12852 0.1847 0.17844 0.07515 0.049919 0.16388 0.088756 0.26438 0.11741 0.1005 0.028655 0.21276 0.047146 0.3386 0.04714 0.12584-6.5e-6 0.26527-0.018498 0.41646-0.051785 0.15119-0.033288 0.31416-0.081367 0.43456-0.13499 0.12041-0.053628 0.19827-0.1128 0.26797-0.18492 0.06971-0.072113 0.13127-0.15718 0.1693-0.25333 0.03803-0.096148 0.05251-0.2034 0.0489-0.29493-0.0036-0.091531-0.02534-0.16735-0.07512-0.21545-0.04978-0.048101-0.12764-0.068443-0.22995-0.085092s-0.22906-0.029595-0.37936-0.015732-0.32413 0.054546-0.51154 0.093381c-0.18742 0.038836-0.3884 0.07582-0.53145 0.11003-0.14305 0.03421-0.22816 0.065649-0.3015 0.098013-0.07334 0.032363-0.1349 0.065646-0.17203 0.10172-0.03713 0.036078-0.0498 0.07491-0.05251 0.12115-0.0027 0.046238 0.0045 0.099874 0.0081 0.12666 0.0036 0.02679 0.0036 0.026798 0.02084 0.063809z" fill="#c18b66" stroke="#000" stroke-width=".042096px"/>
<path d="m13.457 25.74c0.58004 0.17784 1.7401 0.53352 2.3598 0.72443 0.61971 0.19091 0.6991 0.21706 0.7836 0.23929 0.0845 0.02222 0.17413 0.04053 0.25989-0.11899s0.1677-0.49688 0.22916-0.76756c0.06146-0.27068 0.10243-0.47466 0.09989-0.57536-0.0025-0.1007-0.04862-0.09806-0.12095-0.10927-0.07232-0.01121-0.17088-0.03628-0.22879-0.05344-0.0579-0.01716-0.07507-0.02639-0.09318-0.03379s-0.03712-0.01296-0.07198-0.01712c-0.03486-0.0042-0.08556-0.0069-0.18606-0.0023-0.1005 0.0046-0.25079 0.01664-0.54922 0.03338-0.29842 0.01674-0.74496 0.0382-0.99769 0.05025s-0.31162 0.01468-0.36988 0.01861c-0.05826 0.0039-0.11587 0.0092-0.21382 0.02027-0.09795 0.01112-0.23623 0.02811-0.49231 0.06015s-0.62995 0.07911-0.85978 0.10723c-0.22983 0.02811-0.31562 0.03727-0.38028 0.04317-0.06466 0.0059-0.1082 0.0085-0.14724 0.01311-0.03904 0.0046-0.07363 0.01113-0.09538 0.01635-0.02175 0.0052-0.03076 0.0092-0.02243 0.0157 0.0083 0.0065 0.03396 0.01571 0.12295 0.04251 0.08899 0.0268 0.24135 0.07126 0.31751 0.09348 0.07616 0.02222 0.07616 0.02206 0.6562 0.1999z" fill="#a7a499" stroke="#a7a499" stroke-width=".042096px"/>
<path d="m13.488 25.737c-0.07296-0.01961-0.21892-0.05884-0.34184-0.09153-0.12292-0.03269-0.22279-0.05885-0.31753-0.08761-0.09475-0.02876-0.18438-0.06015-0.2548-0.08499-0.07042-0.02484-0.12164-0.04315-0.16134-0.04839-0.0397-0.0052-0.06787 0.0026-0.07941 0.02616s-0.0064 0.06279-0.0039 0.10333c0.0026 0.04053 0.0026 0.08238 0.03204 0.11637 0.02948 0.03399 0.08837 0.06014 0.73498 0.2759 0.64661 0.21576 1.8809 0.62111 2.5646 0.8434 0.68373 0.2223 0.81689 0.26152 0.99614 0.29028 0.17925 0.02876 0.4046 0.04707 0.6005 0.05754s0.36235 0.0131 0.54672 0.0131c0.18438-1e-6 0.38667-0.0026 0.6069-0.01964 0.22023-0.01701 0.45838-0.04839 2.0563-0.20661 1.598-0.15822 4.5556-0.44328 6.1215-0.59758s1.74-0.17784 1.9372-0.2066c0.19718-0.02877 0.4174-0.06276 0.57361-0.09153s0.24839-0.05231 0.32649-0.0863c0.0781-0.034 0.14212-0.07846 0.18948-0.13598 0.04737-0.05753 0.07809-0.12813 0.10498-0.24973 0.02689-0.1216 0.04994-0.2942 0.22663-1.7954 0.1767-1.5012 0.50703-4.3308 0.67349-5.7927 0.16646-1.4619 0.16902-1.5561 0.14216-1.6319-0.02686-0.07584-0.0832-0.13337-0.13954-0.17-0.05634-0.03663-0.11267-0.05232-0.27529-0.05756-0.16262-0.0052-0.43149-7e-6 -2.402 0.09284-1.9706 0.09284-5.6426 0.27329-7.5491 0.37136s-2.0473 0.11376-2.1728 0.13076c-0.12548 0.017-0.23559 0.0353-0.31883 0.06669-0.08324 0.03138-0.13957 0.07584-0.19208 0.13076-0.0525 0.05493-0.10116 0.12031-0.12804 0.19225-0.02689 0.07194-0.03201 0.1504-0.14725 1.6934-0.11524 1.543-0.34058 4.5505-0.45966 6.0896s-0.13188 1.6097-0.14469 1.6698c-0.01281 0.06015-0.02561 0.10984-0.04609 0.1412-0.02048 0.03137-0.04864 0.04444-0.11264 0.03661-0.064-0.0078-0.16388-0.0366-0.68884-0.20136s-1.475-0.46551-1.9501-0.61589-0.47506-0.1504-0.54802-0.17001z" fill="#d2d2d2" stroke="#d2d2d2" stroke-width=".042096px"/>
<path d="m19.577 27.151c0.07172 0.01177 0.21513 0.03531 0.3342 0.05361s0.21383 0.03138 0.28424 0.03137c0.07041-7e-6 0.1165-0.01308 0.15749-0.0183 0.04099-0.0052 0.07684-0.0026 0.1114 0.03015 0.03456 0.03273 0.06785 0.09549 0.13188 0.1504 0.06403 0.0549 0.15878 0.10198 0.26377 0.14251s0.22023 0.07453 0.3201 0.09937c0.09987 0.02484 0.18437 0.04053 0.26119 0.0536 0.07682 0.01307 0.14596 0.02353 0.19334 0.03793 0.04738 0.0144 0.07299 0.03271 0.11652 0.03922 0.04353 0.0065 0.10497 0.0013 0.25478-0.0052s0.38796-0.01439 0.56978-0.01831c0.18182-0.0039 0.30729-0.0039 0.45326-0.01962 0.14596-0.01569 0.31241-0.04707 0.43787-0.09022 0.12546-0.04315 0.20997-0.09807 0.28168-0.14645 0.0717-0.04838 0.1306-0.09023 0.17285-0.12161 0.04225-0.03138 0.06785-0.0523 0.10372-0.06538 0.03587-0.01308 0.08195-0.01831 0.12806-0.0196 0.04611-0.0013 0.09219 0.0013 0.15748-0.01828 0.0653-0.01961 0.1498-0.06145 0.2612-0.10068 0.1114-0.03923 0.24968-0.07584 0.41102-0.1033 0.16133-0.02746 0.3457-0.04576 0.49295-0.07454 0.14724-0.02877 0.25735-0.068 0.38668-0.102 0.12933-0.034 0.27785-0.06276 0.39308-0.09284 0.11523-0.03007 0.19718-0.06146 0.2535-0.10198 0.05632-0.04052 0.08705-0.09022 0.09602-0.13335 9e-3 -0.04313-0.0038-0.07974-0.02814-0.11636-0.02432-0.03662-0.06017-0.07323-0.09601-0.10462-0.03585-0.03139-0.0717-0.05754-0.17158-0.05625-0.09988 0.0013-0.26376 0.03006-0.49039 0.05098s-0.51599 0.03399-0.74262 0.04838c-0.22663 0.01438-0.39052 0.03007-0.51727 0.03792-0.12675 0.0078-0.21639 0.0078-0.26888 0.0065-0.05249-0.0013-0.06786-0.0039-0.07812-0.03663-0.01027-0.03268-0.01539-0.09545-0.02307-0.18698-0.0077-0.09153-0.01793-0.21183-0.03841-0.32821-0.02048-0.11638-0.05121-0.22883-0.0832-0.3099-0.032-0.08107-0.06529-0.13076-0.11522-0.16478-0.04993-0.03402-0.1165-0.05232-0.17926-0.05233-0.06275-1e-5 -0.12165 0.0183-0.17031 0.04837-0.04867 0.03008-0.08708 0.07193-0.12165 0.13863-0.03457 0.0667-0.0653 0.15824-0.07297 0.29293-0.0077 0.1347 0.0077 0.31253 0.01921 0.42237 0.01153 0.10984 0.01921 0.15168 0.0077 0.19089-0.01153 0.03921-0.04226 0.07582-0.07553 0.09804s-0.06912 0.03007-0.10881 0.034c-0.03969 0.0039-0.08322 0.0039-0.11268-0.01827-0.02946-0.0222-0.04483-0.06666-0.05381-0.13858-9e-3 -0.07192-0.01154-0.17131-9e-3 -0.28769 0.0026-0.11638 0.01024-0.24975 0.0077-0.34782-0.0026-0.09807-0.01536-0.16083-0.04351-0.21313-0.02815-0.05231-0.07169-0.09416-0.13187-0.11249-0.06018-0.01833-0.137-0.0131-0.20104 0.0065-0.06404 0.01961-0.11526 0.05362-0.16008 0.09939-0.04482 0.04577-0.08323 0.10331-0.11268 0.17001-0.02945 0.0667-0.04993 0.14254-0.06786 0.20923-0.01793 0.06669-0.03329 0.12422-0.04993 0.19222-0.01664 0.068-0.03457 0.14645-0.04993 0.21052s-0.02816 0.11376-0.03456 0.15823-0.0064 0.08369-0.01536 0.11506c-9e-3 0.03137-0.02689 0.0549-0.0704 0.07059s-0.11265 0.02354-0.18948 0.03138c-0.07683 0.0078-0.16133 0.01569-0.274 0.02223-0.11268 0.0065-0.25351 0.01177-0.37899 0.02616-0.12548 0.01438-0.2356 0.03792-0.3598 0.05753s-0.26248 0.0353-0.4174 0.04838c-0.15493 0.01308-0.32649 0.02354-0.48014 0.034-0.15365 0.01046-0.28937 0.02092-0.41101 0.03399-0.12164 0.01307-0.22919 0.02876-0.31626 0.03661-0.08707 0.0078-0.15364 0.0078-0.20613 0.0092-0.0525 0.0013-0.09091 0.0039-0.10498 0.01184-0.01407 0.0079-0.0039 0.02093 0.04737 0.03529 0.05123 0.01437 0.14342 0.03006 0.22536 0.04837 0.08194 0.01831 0.15365 0.03923 0.18947 0.04969 0.03583 0.01046 0.0358 0.01036 0.10753 0.02213z" fill="#c18b66" stroke="#c18b66" stroke-width=".042096px"/>
<path d="m9.2327 24.836c0.00587-0.06534 0.017604-0.19605 0.030514-0.31436 0.01291-0.11832 0.026996-0.22423 0.060928-0.31578s0.087704-0.16869 0.14149-0.22689c0.053782-0.0582 0.10756-0.09743 0.1671-0.15496 0.059534-0.05753 0.12483-0.13337 0.18501-0.2151 0.060178-0.08172 0.11523-0.16933 0.16709-0.25955 0.051857-0.09023 0.10051-0.18307 0.18246-0.30337 0.08195-0.12031 0.19718-0.26807 0.28937-0.37268 0.09219-0.10462 0.16133-0.16607 0.22024-0.21249 0.05891-0.04642 0.10756-0.0778 0.15942-0.08891 0.05187-0.01111 0.10693-2e-3 0.18888 0.01831 0.08195 0.02027 0.19078 0.05165 0.32522 0.07976 0.13444 0.02811 0.29449 0.05296 0.44942 0.07388 0.15493 0.02092 0.30473 0.03792 0.4571 0.0451 0.15236 0.0072 0.30729 0.0045 0.42957-4.1e-5 0.12228-0.0046 0.2119-0.01113 0.32586-0.02552s0.25223-0.03662 0.40204-0.05951c0.14981-0.02289 0.31113-0.04642 0.48591-0.07061 0.17478-0.02419 0.36299-0.04904 0.52688-0.06408 0.16389-0.01504 0.30345-0.02027 0.45198-0.02224 0.14853-2e-3 0.30602-6.66e-4 0.46094-0.0059 0.15493-0.0052 0.30729-0.01701 0.44365-0.02485 0.13636-0.0078 0.25672-0.01178 0.36811-0.01047 0.11139 0.0013 0.21383 0.0078 0.30601 0.01439 0.09218 0.0065 0.17414 0.01308 0.24841 0.02551 0.07427 0.01243 0.14084 0.03073 0.19141 0.03923 0.05057 0.0085 0.08514 0.0072 0.10497 0.03272 0.01983 0.02553 0.02495 0.07784 0.02558 0.21579 6.37e-4 0.13795-0.0032 0.36155-0.0058 0.59758-0.0026 0.23603-0.0039 0.48447-0.01605 0.68127-0.01218 0.1968-0.03522 0.34194-0.05251 0.44197s-0.02881 0.15494-0.04353 0.19023c-0.01472 0.03529-0.03264 0.05098-0.05631 0.05882-0.02367 0.0078-0.05312 0.0078-0.10306 0.0046-0.04994-0.0033-0.12035-0.0098-0.17092-0.02091-0.05057-0.01111-0.08131-0.0268-0.11716-0.05817-0.03585-0.03137-0.07683-0.07845-0.11908-0.12095-0.04225-0.0425-0.08578-0.08042-0.13251-0.1105-0.04673-0.03008-0.09666-0.05231-0.15045-0.06212-0.05379-0.0098-0.1114-0.0072-0.17159 0.0066-0.06019 0.01374-0.12293 0.03858-0.20487 0.068-0.08194 0.02942-0.1831 0.06342-0.29385 0.10396-0.11076 0.04054-0.23111 0.08761-0.34122 0.13011-0.11011 0.0425-0.20998 0.08042-0.29898 0.11572-0.08899 0.03531-0.16709 0.068-0.29897 0.11115-0.13188 0.04315-0.31753 0.09676-0.48526 0.14188-0.16773 0.04511-0.31753 0.08173-0.46158 0.13207-0.14406 0.05035-0.28233 0.11442-0.39308 0.16345-0.11075 0.04904-0.19398 0.08303-0.27912 0.12814-0.08515 0.04511-0.17222 0.10134-0.25672 0.1458-0.0845 0.04446-0.16644 0.07715-0.28488 0.11508-0.11844 0.03792-0.27336 0.08107-0.39436 0.11115-0.121 0.03008-0.20806 0.04707-0.31177 0.06211-0.10371 0.01504-0.22407 0.02811-0.36363 0.0438-0.13956 0.01569-0.29833 0.034-0.40972 0.04315-0.11139 0.0092-0.17541 0.0092-0.26504 0.01242-0.08963 0.0033-0.20486 0.0098-0.32714 0.01243-0.12228 0.0026-0.25159 0.0013-0.35722-0.0013-0.10563-0.0026-0.18758-0.0065-0.23496-0.0222-0.047386-0.01567-0.06019-0.04313-0.10436-0.12159-0.044173-0.07846-0.11971-0.20791-0.16709-0.28898-0.047377-0.08107-0.066585-0.11376-0.083351-0.19683-0.016766-0.08306-0.031066-0.21649-0.038219-0.28322-0.00715-0.06674-0.00707-0.06673-0.00121-0.13207z" fill="#c18b66" stroke="#c18b66" stroke-width=".042096px"/>
</svg>