<?xml version="1.0" encoding="UTF-8" standalone="no"?>
<!-- Uploaded to: SVG Repo, www.svgrepo.com, Generator: SVG Repo Mixer Tools -->

<svg
   aria-label="JavaScript"
   role="img"
   viewBox="0 0 512 512"
   version="1.1"
   id="svg6"
   sodipodi:docname="javascript.svg"
   inkscape:version="1.1.2 (0a00cf5339, 2022-02-04, custom)"
   xmlns:inkscape="http://www.inkscape.org/namespaces/inkscape"
   xmlns:sodipodi="http://sodipodi.sourceforge.net/DTD/sodipodi-0.dtd"
   xmlns="http://www.w3.org/2000/svg"
   xmlns:svg="http://www.w3.org/2000/svg">
  <defs
     id="defs10" />
  <sodipodi:namedview
     id="namedview8"
     pagecolor="#ffffff"
     bordercolor="#cccccc"
     borderopacity="1"
     inkscape:pageshadow="0"
     inkscape:pageopacity="1"
     inkscape:pagecheckerboard="0"
     showgrid="false"
     inkscape:zoom="1.1159029"
     inkscape:cx="196.25364"
     inkscape:cy="275.56161"
     inkscape:window-width="1920"
     inkscape:window-height="1001"
     inkscape:window-x="-9"
     inkscape:window-y="-9"
     inkscape:window-maximized="1"
     inkscape:current-layer="svg6" />
  <rect
     width="424.17874"
     height="434.93237"
     rx="12.427112%"
     fill="#f7df1e"
     id="rect2"
     x="44.806767"
     y="33.157005"
     style="stroke-width:0.83891" />
  <path
     d="m 313.23238,347.4636 c 8.28474,14.44111 19.88338,24.63484 38.93828,24.63484 16.56948,0 27.33965,-8.49477 27.33965,-20.38745 0,-13.59164 -10.77017,-18.6885 -28.9966,-27.18328 l -9.94169,-4.24738 c -28.99659,-12.74216 -48.05149,-28.03275 -48.05149,-61.16237 0,-30.58118 22.3688,-54.36654 57.99318,-54.36654 25.6827,0 43.90913,9.34425 56.33624,33.12961 l -30.65354,20.38746 c -6.62779,-12.74216 -14.08406,-17.83903 -25.6827,-17.83903 -11.59864,0 -19.0549,7.6453 -19.0549,17.83903 0,11.89268 7.45626,16.98954 24.85422,24.63484 l 9.94169,4.24738 c 33.96744,15.29059 53.02234,29.73171 53.02234,64.56028 0,36.52752 -28.16812,56.91497 -66.27793,56.91497 -37.28133,0 -61.30708,-17.83902 -72.90572,-41.62438 z m -140.8406,3.39791 c 6.62779,11.0432 11.59864,21.23693 25.6827,21.23693 13.25558,0 21.54032,-5.09686 21.54032,-25.48432 V 205.6009 h 39.76676 v 139.31427 c 0,42.47386 -24.02575,61.16236 -59.65013,61.16236 -32.31049,0 -50.53692,-16.98954 -59.65014,-37.377 z"
     id="path4"
     style="stroke-width:0.83891" />
</svg>
