<?xml version="1.0" encoding="UTF-8" standalone="no"?>
<!-- Uploaded to: SVG Repo, www.svgrepo.com, Generator: SVG Repo Mixer Tools -->

<svg
   width="800px"
   height="800px"
   viewBox="0 0 32 32"
   fill="none"
   version="1.1"
   id="svg33"
   sodipodi:docname="logo_portafolio_2.svg"
   inkscape:version="1.1.2 (0a00cf5339, 2022-02-04, custom)"
   xmlns:inkscape="http://www.inkscape.org/namespaces/inkscape"
   xmlns:sodipodi="http://sodipodi.sourceforge.net/DTD/sodipodi-0.dtd"
   xmlns="http://www.w3.org/2000/svg"
   xmlns:svg="http://www.w3.org/2000/svg">
  <sodipodi:namedview
     id="namedview35"
     pagecolor="#ffffff"
     bordercolor="#cccccc"
     borderopacity="1"
     inkscape:pageshadow="0"
     inkscape:pageopacity="1"
     inkscape:pagecheckerboard="0"
     showgrid="false"
     inkscape:zoom="0.50499999"
     inkscape:cx="239.60396"
     inkscape:cy="642.57427"
     inkscape:window-width="1920"
     inkscape:window-height="1001"
     inkscape:window-x="-9"
     inkscape:window-y="-9"
     inkscape:window-maximized="1"
     inkscape:current-layer="svg33" />
  <defs
     id="defs31">
    <linearGradient
       id="paint0_linear_87_8101"
       x1="23.79"
       y1="2"
       x2="23.79"
       y2="30"
       gradientUnits="userSpaceOnUse">
      <stop
         stop-color="#32B5F1"
         id="stop8" />
      <stop
         offset="1"
         stop-color="#2B9FED"
         id="stop10" />
    </linearGradient>
    <linearGradient
       id="paint1_linear_87_8101"
       x1="21.0018"
       y1="5.53398"
       x2="1.0217"
       y2="22.3051"
       gradientUnits="userSpaceOnUse">
      <stop
         stop-color="#0F6FB3"
         id="stop13" />
      <stop
         offset="0.270551"
         stop-color="#1279B7"
         id="stop15" />
      <stop
         offset="0.421376"
         stop-color="#1176B5"
         id="stop17" />
      <stop
         offset="0.618197"
         stop-color="#0E69AC"
         id="stop19" />
      <stop
         offset="0.855344"
         stop-color="#0F70AF"
         id="stop21" />
      <stop
         offset="1"
         stop-color="#0F6DAD"
         id="stop23" />
    </linearGradient>
    <linearGradient
       id="paint2_linear_87_8101"
       x1="1.15522"
       y1="9.98389"
       x2="21.0791"
       y2="26.4808"
       gradientUnits="userSpaceOnUse">
      <stop
         stop-color="#1791D2"
         id="stop26" />
      <stop
         offset="1"
         stop-color="#1173C5"
         id="stop28" />
    </linearGradient>
    <inkscape:path-effect
       effect="bspline"
       id="path-effect7643-7-69"
       is_visible="true"
       lpeversion="1"
       weight="33.333333"
       steps="2"
       helper_size="0"
       apply_no_weight="true"
       apply_with_weight="true"
       only_selected="false" />
    <inkscape:path-effect
       effect="bspline"
       id="path-effect7647-5-1"
       is_visible="true"
       lpeversion="1"
       weight="33.333333"
       steps="2"
       helper_size="0"
       apply_no_weight="true"
       apply_with_weight="true"
       only_selected="false" />
    <inkscape:path-effect
       effect="bspline"
       id="path-effect7651-6-69"
       is_visible="true"
       lpeversion="1"
       weight="33.333333"
       steps="2"
       helper_size="0"
       apply_no_weight="true"
       apply_with_weight="true"
       only_selected="false" />
    <inkscape:path-effect
       effect="bspline"
       id="path-effect2354-4-1"
       is_visible="true"
       lpeversion="1"
       weight="33.333333"
       steps="2"
       helper_size="0"
       apply_no_weight="true"
       apply_with_weight="true"
       only_selected="false" />
    <inkscape:path-effect
       effect="bspline"
       id="path-effect2530-6-0"
       is_visible="true"
       lpeversion="1"
       weight="33.333333"
       steps="2"
       helper_size="0"
       apply_no_weight="true"
       apply_with_weight="true"
       only_selected="false" />
    <inkscape:path-effect
       effect="bspline"
       id="path-effect3109-3-1-7"
       is_visible="true"
       lpeversion="1"
       weight="33.333333"
       steps="2"
       helper_size="0"
       apply_no_weight="true"
       apply_with_weight="true"
       only_selected="false" />
    <inkscape:path-effect
       effect="bspline"
       id="path-effect7643-7-69-1"
       is_visible="true"
       lpeversion="1"
       weight="33.333333"
       steps="2"
       helper_size="0"
       apply_no_weight="true"
       apply_with_weight="true"
       only_selected="false" />
    <inkscape:path-effect
       effect="bspline"
       id="path-effect7647-5-1-2"
       is_visible="true"
       lpeversion="1"
       weight="33.333333"
       steps="2"
       helper_size="0"
       apply_no_weight="true"
       apply_with_weight="true"
       only_selected="false" />
    <inkscape:path-effect
       effect="bspline"
       id="path-effect7651-6-69-1"
       is_visible="true"
       lpeversion="1"
       weight="33.333333"
       steps="2"
       helper_size="0"
       apply_no_weight="true"
       apply_with_weight="true"
       only_selected="false" />
    <inkscape:path-effect
       effect="bspline"
       id="path-effect2354-4-1-8"
       is_visible="true"
       lpeversion="1"
       weight="33.333333"
       steps="2"
       helper_size="0"
       apply_no_weight="true"
       apply_with_weight="true"
       only_selected="false" />
    <inkscape:path-effect
       effect="bspline"
       id="path-effect2530-6-0-0"
       is_visible="true"
       lpeversion="1"
       weight="33.333333"
       steps="2"
       helper_size="0"
       apply_no_weight="true"
       apply_with_weight="true"
       only_selected="false" />
    <inkscape:path-effect
       effect="bspline"
       id="path-effect8636-7"
       is_visible="true"
       lpeversion="1"
       weight="33.333333"
       steps="2"
       helper_size="0"
       apply_no_weight="true"
       apply_with_weight="true"
       only_selected="false" />
    <inkscape:path-effect
       effect="bspline"
       id="path-effect3109-3-1-26-0-0-9-7"
       is_visible="true"
       lpeversion="1"
       weight="33.333333"
       steps="2"
       helper_size="0"
       apply_no_weight="true"
       apply_with_weight="true"
       only_selected="false" />
    <inkscape:path-effect
       effect="bspline"
       id="path-effect7643-7-2-7-4-7-0"
       is_visible="true"
       lpeversion="1"
       weight="33.333333"
       steps="2"
       helper_size="0"
       apply_no_weight="true"
       apply_with_weight="true"
       only_selected="false" />
    <inkscape:path-effect
       effect="bspline"
       id="path-effect7647-5-4-8-2-7-6"
       is_visible="true"
       lpeversion="1"
       weight="33.333333"
       steps="2"
       helper_size="0"
       apply_no_weight="true"
       apply_with_weight="true"
       only_selected="false" />
    <inkscape:path-effect
       effect="bspline"
       id="path-effect7651-6-6-0-6-1-7"
       is_visible="true"
       lpeversion="1"
       weight="33.333333"
       steps="2"
       helper_size="0"
       apply_no_weight="true"
       apply_with_weight="true"
       only_selected="false" />
    <inkscape:path-effect
       effect="bspline"
       id="path-effect2354-4-0-2-8-6-2"
       is_visible="true"
       lpeversion="1"
       weight="33.333333"
       steps="2"
       helper_size="0"
       apply_no_weight="true"
       apply_with_weight="true"
       only_selected="false" />
    <inkscape:path-effect
       effect="bspline"
       id="path-effect2530-6-4-9-1-1-7"
       is_visible="true"
       lpeversion="1"
       weight="33.333333"
       steps="2"
       helper_size="0"
       apply_no_weight="true"
       apply_with_weight="true"
       only_selected="false" />
  </defs>
  <path
     d="m 5.8167549,16.538083 c -1.2533282,0.335096 -0.6184003,1.919374 -0.4483797,2.79829 0.4483797,2.330737 0.9711731,4.646774 1.4271445,6.976404 0.1138743,0.580096 0.2427736,1.154659 0.3550662,1.734044 0.079079,0.401483 0.1059663,0.746854 0.4151665,1.043935 0.3582293,0.346161 0.8678955,0.286887 1.3198339,0.286887 h 2.8349937 9.009903 2.679603 c 0.432564,0 0.944919,0.07113 1.359295,-0.07113 0.871691,-0.317709 0.846702,-1.675797 1.009684,-2.466514 0.501363,-2.431897 0.969434,-4.873121 1.495153,-7.299012 0.177929,-0.821065 0.772605,-2.279208 -0.09648,-2.857881 -0.445216,-0.295581 -1.125219,-0.165968 -1.631169,-0.165968 H 21.740721 10.827933 7.4491894 c -0.5061076,0 -1.140482,-0.110645 -1.6311692,0.02371 m 10.4080258,5.919111 c 0.684827,-0.150951 0.9654,0.957712 0.271242,1.132531 -0.725948,0.181774 -1.013323,-0.968776 -0.271242,-1.132531"
     style="fill:#ff7c3e;fill-opacity:1;stroke:none;stroke-width:0.39574;stroke-miterlimit:4;stroke-dasharray:none;stroke-opacity:1"
     id="path3493-2" />
  <path
     d="m 15.896481,0.5944584 c -1.50907,0.20785451 -2.956143,0.8395583 -3.517132,2.4428042 -0.243564,0.6962731 -0.25938,1.4537171 -0.371672,2.1759917 -0.03163,0.1904675 -0.217469,0.305064 -0.283104,0.4852573 -0.134435,0.3659188 -0.07908,0.8764664 -0.0048,1.2502093 0.06326,0.3090157 0.164485,0.6622893 0.353484,0.9146389 0.126527,0.1683384 0.304456,0.2521125 0.392234,0.4568057 0.715668,1.6712372 2.096472,3.7711205 4.130471,3.4966425 1.603151,-0.216548 2.755811,-1.8214537 3.35634,-3.2547251 C 20.203774,7.959858 20.654526,7.590857 20.778206,6.9086516 20.849378,6.5419425 20.8818,6.0999158 20.773303,5.7392132 20.717948,5.551907 20.546346,5.4096492 20.526576,5.2152301 20.447497,4.4826022 20.530451,3.7987372 20.269568,3.0779641 19.61321,1.2651251 17.70376,0.34558621 15.897589,0.59485356"
     style="fill:#7958d7;fill-opacity:1;stroke:none;stroke-width:0.39574;stroke-miterlimit:4;stroke-dasharray:none;stroke-opacity:1"
     id="path2786-3" />
  <path
     d="M 7.9485348,15.705979 H 24.647874 c -0.325807,-1.463122 -1.190144,-3.070793 -2.640854,-3.547594 -0.841009,-0.276613 -1.743541,-0.190468 -2.602026,-0.364338 -0.457869,1.141145 -1.499977,2.202862 -2.330072,3.064787 l -0.336088,-1.411435 0.215096,-0.403854 0.08224,-0.604596 h -1.475779 l 0.09964,0.644902 0.187418,0.362758 -0.325016,1.411434 c -0.82195,-0.853072 -1.896955,-1.923563 -2.330072,-3.064787 -0.900951,0.180984 -1.838832,0.09879 -2.71851,0.406225 -1.3878422,0.493951 -2.2108207,2.097987 -2.5242912,3.505234"
     style="fill:#7958d7;fill-opacity:1;stroke:none;stroke-width:0.39574;stroke-miterlimit:4;stroke-dasharray:none;stroke-opacity:1"
     id="path3301-7" />
  <path
     d="m 7.1011207,29.931368 c -0.4602416,0.110645 -0.5235051,0.808736 -0.03954,0.942932 0.4752667,0.131984 1.0982537,0.04742 1.5928948,0.04742 l 3.1679975,-0.006 9.22057,0.006 h 3.339836 c 0.354276,0 0.964293,0.125661 1.231898,-0.169919 0.325016,-0.359597 -0.02372,-0.816086 -0.416748,-0.83703 -1.236247,-0.06323 -2.490287,-0.0016 -3.728274,-0.0016 H 11.644386 8.5763456 c -0.4610325,0 -1.0269242,-0.08615 -1.4756993,0.02371 z"
     style="fill:#e8e8e8;fill-opacity:1;stroke:none;stroke-width:0.39574;stroke-miterlimit:4;stroke-dasharray:none;stroke-opacity:1"
     id="path3609-5" />
  <path
     d="m 19.893422,23.280376 3.46304,-4.84516"
     stroke="#ffffff"
     stroke-linecap="round"
     stroke-linejoin="round"
     id="path1188"
     inkscape:export-filename="C:\Users\jlopezm\Documents\GIMP\g4021-9.png"
     inkscape:export-xdpi="96"
     inkscape:export-ydpi="96"
     style="stroke-width:0.24;stroke-miterlimit:4;stroke-dasharray:none" />
  <path
     d="m 17.030298,1.874436 -1.030605,1.3067194 c 0,0 -3.396,3.819966 -2.242916,6.288457"
     stroke="#ffffff"
     stroke-linecap="round"
     stroke-linejoin="round"
     id="path1202"
     inkscape:export-filename="C:\Users\jlopezm\Documents\GIMP\g4021-9.png"
     inkscape:export-xdpi="96"
     inkscape:export-ydpi="96"
     style="stroke-width:0.24;stroke-miterlimit:4;stroke-dasharray:none" />
  <path
     d="m 6.4656276,14.558523 c -1.08412,-0.9586 -2.8758,1.43084 3.6783604,9.03648 3.782,4.38764 6.7548,4.78084 7.15608,3.25424 0.72228,-2.73844 -1.886,-3.4304 -0.91492,-2.35796 1.41116,1.55948 5.42456,1.88904 8.41608,0.43408 2.9514,-1.4362 1.13696,-3.66616 0.95372,-3.7968"
     stroke="#ffffff"
     stroke-linecap="round"
     stroke-linejoin="round"
     id="path1216"
     inkscape:export-filename="C:\Users\jlopezm\Documents\GIMP\g4021-9.png"
     inkscape:export-xdpi="96"
     inkscape:export-ydpi="96"
     style="stroke-width:0.24;stroke-miterlimit:4;stroke-dasharray:none" />
  <path
     d="m 3.1600099,4.6449639 4.7134605,7.0391411 c 0.024151,0.03731 0.055992,0.06972 0.093641,0.09529 0.037603,0.0255 0.080257,0.04365 0.1254587,0.05335 0.045248,0.0095 0.091965,0.01061 0.1375798,0.0028 0.0455,-0.0078 0.089026,-0.02412 0.1277085,-0.04802 l 1.4891841,-0.923558 c 0.074885,-0.04605 0.1276855,-0.117871 0.1473135,-0.200191 0.019743,-0.08236 0.00459,-0.168731 -0.042011,-0.240841 L 5.385408,3.2633297 C 5.361143,3.2255697 5.329026,3.1928537 5.290918,3.1671537 5.252902,3.1414537 5.209743,3.1232877 5.164036,3.1137827 5.118421,3.1042527 5.071199,3.1036067 5.0252165,3.1118527 c -0.045891,0.00823 -0.0896,0.025181 -0.1283283,0.049799 L 3.2585518,4.1972586 c -0.075298,0.047439 -0.1278692,0.1209458 -0.1462805,0.2046725 -0.018365,0.083705 -0.00135,0.1710044 0.04775,0.2429483 z"
     fill="#ffffff"
     stroke="#ffffff"
     stroke-linecap="round"
     stroke-linejoin="round"
     id="path1280"
     inkscape:export-filename="C:\Users\jlopezm\Documents\GIMP\g4021-9.png"
     inkscape:export-xdpi="96"
     inkscape:export-ydpi="96"
     style="stroke-width:0.0891785" />
  <path
     d="M 3.7288691,4.6028645 4.9097509,6.2152982 6.2653841,5.4851651 5.1604731,3.6730668 Z"
     fill="#ff6d66"
     id="path1282"
     inkscape:export-filename="C:\Users\jlopezm\Documents\GIMP\g4021-9.png"
     inkscape:export-xdpi="96"
     inkscape:export-ydpi="96"
     style="stroke-width:0.0891785" />
  <path
     d="M 5.3484889,6.8374461 6.4778718,8.5902883 7.7222244,7.8958046 6.595578,6.1047062 Z"
     fill="#91ba83"
     id="path1284"
     inkscape:export-filename="C:\Users\jlopezm\Documents\GIMP\g4021-9.png"
     inkscape:export-xdpi="96"
     inkscape:export-ydpi="96"
     style="stroke-width:0.0891785" />
  <path
     d="M 6.8357447,9.2376149 8.0165415,10.850077 9.1364731,10.195425 8.091633,8.4751927 Z"
     fill="#fad8b0"
     id="path1286"
     inkscape:export-filename="C:\Users\jlopezm\Documents\GIMP\g4021-9.png"
     inkscape:export-xdpi="96"
     inkscape:export-ydpi="96"
     style="stroke-width:0.0891785" />
  <path
     d="M 2.5044659,7.0527042 4.0153212,8.3994251 5.1793435,7.4180598 3.699962,5.8611256 Z"
     fill="#a0c6f4"
     id="path1290"
     inkscape:export-filename="C:\Users\jlopezm\Documents\GIMP\g4021-9.png"
     inkscape:export-xdpi="96"
     inkscape:export-ydpi="96"
     style="fill:#7958d7;fill-opacity:1;stroke-width:0.0891785" />
  <path
     d="M 4.5816782,8.9208542 6.0718885,10.415092 7.1351651,9.490209 5.6395439,7.9582997 Z"
     fill="#f9865f"
     id="path1292"
     inkscape:export-filename="C:\Users\jlopezm\Documents\GIMP\g4021-9.png"
     inkscape:export-xdpi="96"
     inkscape:export-ydpi="96"
     style="fill:#ff7c3e;fill-opacity:1;stroke-width:0.0891785" />
  <path
     d="m 6.5639436,10.977897 1.5102102,1.34545 0.9507908,-0.861441 -1.400454,-1.478281 z"
     fill="#fad8b0"
     id="path1294"
     inkscape:export-filename="C:\Users\jlopezm\Documents\GIMP\g4021-9.png"
     inkscape:export-xdpi="96"
     inkscape:export-ydpi="96"
     style="stroke-width:0.0891785" />
  <path
     d="m 11.246964,1.3856832 0.243422,0.2206928 c 0.0495,0.044782 0.07537,0.1040351 0.07206,0.1647357 -0.0034,0.06062 -0.03559,0.1177029 -0.08967,0.1586255 l -0.39863,0.3014929 c -0.05407,0.040923 -0.125649,0.062389 -0.19888,0.059655 -0.07323,-0.00281 -0.142183,-0.029506 -0.191685,-0.074288 L 10.440159,1.9959048 Z"
     fill="#91ba83"
     id="path1302"
     inkscape:export-filename="C:\Users\jlopezm\Documents\GIMP\g4021-9.png"
     inkscape:export-xdpi="96"
     inkscape:export-ydpi="96"
     style="stroke-width:0.0884245" />
  <path
     d="M 10.877679,3.1686894 H 9.4354282 v 1.09052 h 1.4422508 z"
     fill="#ff6d66"
     id="path1306"
     inkscape:export-filename="C:\Users\jlopezm\Documents\GIMP\g4021-9.png"
     inkscape:export-xdpi="96"
     inkscape:export-ydpi="96"
     style="stroke-width:0.0884245" />
  <path
     d="m 16.144004,7.8021564 c -6.1528854,-2.553524 -10.8852654,2.3646396 0.70824,9.8952796 0.91292,0.59352 2.31336,0.80384 2.31336,0.80384"
     stroke="#ffffff"
     stroke-linecap="round"
     stroke-linejoin="round"
     id="path1314"
     inkscape:export-filename="C:\Users\jlopezm\Documents\GIMP\g4021-9.png"
     inkscape:export-xdpi="96"
     inkscape:export-ydpi="96"
     style="stroke-width:0.24;stroke-miterlimit:4;stroke-dasharray:none" />
  <path
     d="M 18.772689,9.7926952 18.331953,9.3083872"
     stroke="#ffffff"
     stroke-linecap="round"
     stroke-linejoin="round"
     id="path1322"
     inkscape:export-filename="C:\Users\jlopezm\Documents\GIMP\g4021-9.png"
     inkscape:export-xdpi="96"
     inkscape:export-ydpi="96"
     style="stroke-width:0.24;stroke-miterlimit:4;stroke-dasharray:none" />
  <path
     d="m 22.261121,7.0596903 0.497831,1.6369608 1.60138,-0.1848052 -0.341766,-1.7741991 z"
     fill="#ff6d66"
     id="path1326"
     inkscape:export-filename="C:\Users\jlopezm\Documents\GIMP\g4021-9.png"
     inkscape:export-xdpi="96"
     inkscape:export-ydpi="96"
     style="stroke-width:0.128893" />
  <path
     d="M 22.934726,9.3236688 23.325253,11.05599 24.80692,10.867316 24.433474,9.1025625 Z"
     fill="#fad8b0"
     id="path1328"
     inkscape:export-filename="C:\Users\jlopezm\Documents\GIMP\g4021-9.png"
     inkscape:export-xdpi="96"
     inkscape:export-ydpi="96"
     style="stroke-width:0.128893" />
  <path
     d="m 6.5389709,28.074839 c -0.18456,-0.134 -0.3056,-0.22708 -0.3056,-0.22708 0.0508,-0.067 0.85936,-0.93048 1.32752,-1.6258 0,0 -0.947,1.90848 -1.02192,1.85288 z"
     fill="#ffffff"
     id="path1146"
     inkscape:export-filename="C:\Users\jlopezm\Documents\GIMP\g4021-9.png"
     inkscape:export-xdpi="96"
     inkscape:export-ydpi="96"
     style="stroke-width:0.24;stroke-miterlimit:4;stroke-dasharray:none" />
  <path
     d="m 7.4148971,25.487764 c -0.09296,0.55736 -1.32556,1.72896 -1.32556,1.72896"
     stroke="#ffffff"
     stroke-linecap="round"
     stroke-linejoin="round"
     id="path1210"
     inkscape:export-filename="C:\Users\jlopezm\Documents\GIMP\g4021-9.png"
     inkscape:export-xdpi="96"
     inkscape:export-ydpi="96"
     style="stroke-width:0.24;stroke-miterlimit:4;stroke-dasharray:none" />
  <path
     d="m 25.210716,16.021763 c 0.09676,0 0.1752,-0.07856 0.1752,-0.17548 0,-0.09696 -0.07844,-0.17552 -0.1752,-0.17552 -0.0968,0 -0.17524,0.07856 -0.17524,0.17552 0,0.09692 0.07844,0.17548 0.17524,0.17548 z"
     fill="#ffffff"
     id="path1218"
     inkscape:export-filename="C:\Users\jlopezm\Documents\GIMP\g4021-9.png"
     inkscape:export-xdpi="96"
     inkscape:export-ydpi="96"
     style="stroke-width:0.04" />
  <path
     d="m 26.502033,10.22171 0.444144,0.966982 0.444245,0.966857 h -0.888389 -0.886692 l 0.442447,-0.966857 z"
     fill="#a0c6f4"
     id="path1254"
     inkscape:export-filename="C:\Users\jlopezm\Documents\GIMP\g4021-9.png"
     inkscape:export-xdpi="96"
     inkscape:export-ydpi="96"
     style="stroke-width:0.111841" />
  <path
     d="m 24.990105,14.431025 c 0.400574,0 0.725284,-0.318573 0.725284,-0.711629 0,-0.392883 -0.32471,-0.711456 -0.725284,-0.711456 -0.400575,0 -0.725285,0.318573 -0.725285,0.711456 0,0.393056 0.32471,0.711629 0.725285,0.711629 z"
     fill="#91ba83"
     id="path1414"
     inkscape:export-filename="C:\Users\jlopezm\Documents\GIMP\g4021-9.png"
     inkscape:export-xdpi="96"
     inkscape:export-ydpi="96"
     style="stroke-width:0.173805" />
</svg>
