<?xml version="1.0" encoding="UTF-8" standalone="no"?>
<!-- Uploaded to: SVG Repo, www.svgrepo.com, Generator: SVG Repo Mixer Tools -->

<svg
   width="800px"
   height="800px"
   viewBox="0 0 32 32"
   fill="none"
   version="1.1"
   id="svg33"
   sodipodi:docname="logo_portafolio.svg"
   inkscape:version="1.1.2 (0a00cf5339, 2022-02-04, custom)"
   xmlns:inkscape="http://www.inkscape.org/namespaces/inkscape"
   xmlns:sodipodi="http://sodipodi.sourceforge.net/DTD/sodipodi-0.dtd"
   xmlns="http://www.w3.org/2000/svg"
   xmlns:svg="http://www.w3.org/2000/svg">
  <sodipodi:namedview
     id="namedview35"
     pagecolor="#ffffff"
     bordercolor="#cccccc"
     borderopacity="1"
     inkscape:pageshadow="0"
     inkscape:pageopacity="1"
     inkscape:pagecheckerboard="0"
     showgrid="false"
     inkscape:zoom="0.505"
     inkscape:cx="588.11881"
     inkscape:cy="408.91089"
     inkscape:window-width="1920"
     inkscape:window-height="1001"
     inkscape:window-x="-9"
     inkscape:window-y="-9"
     inkscape:window-maximized="1"
     inkscape:current-layer="svg33" />
  <defs
     id="defs31">
    <linearGradient
       id="paint0_linear_87_8101"
       x1="23.79"
       y1="2"
       x2="23.79"
       y2="30"
       gradientUnits="userSpaceOnUse">
      <stop
         stop-color="#32B5F1"
         id="stop8" />
      <stop
         offset="1"
         stop-color="#2B9FED"
         id="stop10" />
    </linearGradient>
    <linearGradient
       id="paint1_linear_87_8101"
       x1="21.0018"
       y1="5.53398"
       x2="1.0217"
       y2="22.3051"
       gradientUnits="userSpaceOnUse">
      <stop
         stop-color="#0F6FB3"
         id="stop13" />
      <stop
         offset="0.270551"
         stop-color="#1279B7"
         id="stop15" />
      <stop
         offset="0.421376"
         stop-color="#1176B5"
         id="stop17" />
      <stop
         offset="0.618197"
         stop-color="#0E69AC"
         id="stop19" />
      <stop
         offset="0.855344"
         stop-color="#0F70AF"
         id="stop21" />
      <stop
         offset="1"
         stop-color="#0F6DAD"
         id="stop23" />
    </linearGradient>
    <linearGradient
       id="paint2_linear_87_8101"
       x1="1.15522"
       y1="9.98389"
       x2="21.0791"
       y2="26.4808"
       gradientUnits="userSpaceOnUse">
      <stop
         stop-color="#1791D2"
         id="stop26" />
      <stop
         offset="1"
         stop-color="#1173C5"
         id="stop28" />
    </linearGradient>
    <inkscape:path-effect
       effect="bspline"
       id="path-effect7643-7-69"
       is_visible="true"
       lpeversion="1"
       weight="33.333333"
       steps="2"
       helper_size="0"
       apply_no_weight="true"
       apply_with_weight="true"
       only_selected="false" />
    <inkscape:path-effect
       effect="bspline"
       id="path-effect7647-5-1"
       is_visible="true"
       lpeversion="1"
       weight="33.333333"
       steps="2"
       helper_size="0"
       apply_no_weight="true"
       apply_with_weight="true"
       only_selected="false" />
    <inkscape:path-effect
       effect="bspline"
       id="path-effect7651-6-69"
       is_visible="true"
       lpeversion="1"
       weight="33.333333"
       steps="2"
       helper_size="0"
       apply_no_weight="true"
       apply_with_weight="true"
       only_selected="false" />
    <inkscape:path-effect
       effect="bspline"
       id="path-effect2354-4-1"
       is_visible="true"
       lpeversion="1"
       weight="33.333333"
       steps="2"
       helper_size="0"
       apply_no_weight="true"
       apply_with_weight="true"
       only_selected="false" />
    <inkscape:path-effect
       effect="bspline"
       id="path-effect2530-6-0"
       is_visible="true"
       lpeversion="1"
       weight="33.333333"
       steps="2"
       helper_size="0"
       apply_no_weight="true"
       apply_with_weight="true"
       only_selected="false" />
    <inkscape:path-effect
       effect="bspline"
       id="path-effect3109-3-1-7"
       is_visible="true"
       lpeversion="1"
       weight="33.333333"
       steps="2"
       helper_size="0"
       apply_no_weight="true"
       apply_with_weight="true"
       only_selected="false" />
    <inkscape:path-effect
       effect="bspline"
       id="path-effect7643-7-69-1"
       is_visible="true"
       lpeversion="1"
       weight="33.333333"
       steps="2"
       helper_size="0"
       apply_no_weight="true"
       apply_with_weight="true"
       only_selected="false" />
    <inkscape:path-effect
       effect="bspline"
       id="path-effect7647-5-1-2"
       is_visible="true"
       lpeversion="1"
       weight="33.333333"
       steps="2"
       helper_size="0"
       apply_no_weight="true"
       apply_with_weight="true"
       only_selected="false" />
    <inkscape:path-effect
       effect="bspline"
       id="path-effect7651-6-69-1"
       is_visible="true"
       lpeversion="1"
       weight="33.333333"
       steps="2"
       helper_size="0"
       apply_no_weight="true"
       apply_with_weight="true"
       only_selected="false" />
    <inkscape:path-effect
       effect="bspline"
       id="path-effect2354-4-1-8"
       is_visible="true"
       lpeversion="1"
       weight="33.333333"
       steps="2"
       helper_size="0"
       apply_no_weight="true"
       apply_with_weight="true"
       only_selected="false" />
    <inkscape:path-effect
       effect="bspline"
       id="path-effect2530-6-0-0"
       is_visible="true"
       lpeversion="1"
       weight="33.333333"
       steps="2"
       helper_size="0"
       apply_no_weight="true"
       apply_with_weight="true"
       only_selected="false" />
  </defs>
  <g
     id="g13410"
     transform="matrix(7.9079325,0,0,7.9032133,-960.01221,882.24562)"
     style="fill:#f2f2f2;stroke:none;stroke-opacity:1">
    <g
       id="g16952"
       transform="translate(-7.4653465,-12.277228)"
       style="fill:#f2f2f2;stroke:none;stroke-opacity:1">
      <path
         d="m 129.58538,-97.268537 c -0.15849,0.0424 -0.0782,0.24286 -0.0567,0.35407 0.0567,0.29491 0.12281,0.58796 0.18047,0.88273 0.0144,0.0734 0.0307,0.1461 0.0449,0.21941 0.01,0.0508 0.0134,0.0945 0.0525,0.13209 0.0453,0.0438 0.10975,0.0363 0.1669,0.0363 h 0.3585 1.13935 0.33885 c 0.0547,0 0.11949,0.009 0.17189,-0.009 0.11023,-0.0402 0.10707,-0.21204 0.12768,-0.31209 0.0634,-0.30771 0.12259,-0.6166 0.18907,-0.92355 0.0225,-0.10389 0.0977,-0.28839 -0.0122,-0.36161 -0.0563,-0.0374 -0.14229,-0.021 -0.20627,-0.021 h -0.48127 -1.37998 -0.42726 c -0.064,0 -0.14422,-0.014 -0.20627,0.003 m 1.31615,0.74895 c 0.0866,-0.0191 0.12208,0.12118 0.0343,0.1433 -0.0918,0.023 -0.12814,-0.12258 -0.0343,-0.1433"
         style="fill:#f2f2f2;fill-opacity:1;stroke:none;stroke-width:0.0500583;stroke-miterlimit:4;stroke-dasharray:none;stroke-opacity:1"
         id="path3493-2" />
      <path
         d="m 130.87418,-99.27881 c -0.19083,0.0263 -0.37382,0.10623 -0.44476,0.30909 -0.0308,0.0881 -0.0328,0.18394 -0.047,0.27533 -0.004,0.0241 -0.0275,0.0386 -0.0358,0.0614 -0.017,0.0463 -0.01,0.1109 -6.1e-4,0.15819 0.008,0.0391 0.0208,0.0838 0.0447,0.11573 0.016,0.0213 0.0385,0.0319 0.0496,0.0578 0.0905,0.211463 0.26511,0.477163 0.52232,0.442433 0.20273,-0.0274 0.34849,-0.23047 0.42443,-0.411823 0.0318,-0.0762 0.0888,-0.12289 0.10444,-0.20921 0.009,-0.0464 0.0131,-0.10233 -6.2e-4,-0.14797 -0.007,-0.0237 -0.0287,-0.0417 -0.0312,-0.0663 -0.01,-0.0927 4.9e-4,-0.17923 -0.0325,-0.27043 -0.083,-0.22938 -0.32446,-0.34573 -0.55286,-0.31419"
         style="fill:#f2f2f2;fill-opacity:1;stroke:none;stroke-width:0.0500583;stroke-miterlimit:4;stroke-dasharray:none;stroke-opacity:1"
         id="path2786-3" />
      <path
         d="m 129.86912,-97.366737 h 2.11172 c -0.0412,-0.18513 -0.1505,-0.38855 -0.33395,-0.44888 -0.10635,-0.035 -0.22048,-0.0241 -0.32904,-0.0461 -0.0579,0.14439 -0.18968,0.27873 -0.29465,0.38779 l -0.0425,-0.17859 0.0272,-0.0511 0.0104,-0.0765 h -0.18662 l 0.0126,0.0816 0.0237,0.0459 -0.0411,0.17859 c -0.10394,-0.10794 -0.23988,-0.24339 -0.29465,-0.38779 -0.11393,0.0229 -0.23253,0.0125 -0.34377,0.0514 -0.1755,0.0625 -0.27957,0.26546 -0.31921,0.44352"
         style="fill:#f2f2f2;stroke:none;stroke-width:0.0500583;stroke-miterlimit:4;stroke-dasharray:none;stroke-opacity:1"
         id="path3301-7" />
      <path
         d="m 129.76196,-95.566787 c -0.0582,0.014 -0.0662,0.10233 -0.005,0.11931 0.0601,0.0167 0.13888,0.006 0.20143,0.006 l 0.40061,-7.6e-4 1.16599,7.6e-4 h 0.42234 c 0.0448,0 0.12194,0.0159 0.15578,-0.0215 0.0411,-0.0455 -0.003,-0.10326 -0.0527,-0.10591 -0.15633,-0.008 -0.31491,-2e-4 -0.47146,-2e-4 h -1.24247 -0.38797 c -0.0583,0 -0.12986,-0.0109 -0.18661,0.003 z"
         style="fill:#f2f2f2;fill-opacity:1;stroke:none;stroke-width:0.0500583;stroke-miterlimit:4;stroke-dasharray:none;stroke-opacity:1"
         id="path3609-5" />
    </g>
  </g>
</svg>
