<?xml version="1.0" encoding="UTF-8" standalone="no"?>
<!-- Uploaded to: SVG Repo, www.svgrepo.com, Generator: SVG Repo Mixer Tools -->

<svg
   width="800px"
   height="800px"
   viewBox="0 0 100 100"
   version="1.1"
   id="svg26"
   sodipodi:docname="gimp.svg"
   inkscape:version="1.1.2 (0a00cf5339, 2022-02-04, custom)"
   xmlns:inkscape="http://www.inkscape.org/namespaces/inkscape"
   xmlns:sodipodi="http://sodipodi.sourceforge.net/DTD/sodipodi-0.dtd"
   xmlns="http://www.w3.org/2000/svg"
   xmlns:svg="http://www.w3.org/2000/svg">
  <defs
     id="defs30" />
  <sodipodi:namedview
     id="namedview28"
     pagecolor="#ffffff"
     bordercolor="#cccccc"
     borderopacity="1"
     inkscape:pageshadow="0"
     inkscape:pageopacity="1"
     inkscape:pagecheckerboard="0"
     showgrid="false"
     inkscape:zoom="0.505"
     inkscape:cx="544.55446"
     inkscape:cy="628.71287"
     inkscape:window-width="1920"
     inkscape:window-height="1001"
     inkscape:window-x="-9"
     inkscape:window-y="-9"
     inkscape:window-maximized="1"
     inkscape:current-layer="svg26" />
  <path
     style="fill:#6b6551;stroke:#999999;stroke-width:2.11137;stroke-linejoin:round"
     d="m 15.785914,36.393534 3.11001,-1.07505 V 12.74243 c 0,29.026355 60.126866,18.275853 60.126866,-6.4503005 V 35.318484 C 76.94945,74.02029 40.665996,78.320491 16.822584,50.369187 Z"
     id="path2" />
  <path
     style="fill:#333333;stroke:#000000;stroke-width:2.11137"
     d="m 19.828403,44.993936 a 10.567025,7.3826896 48.031975 1 1 0,-1.520351 z"
     id="path4" />
  <g
     style="fill:#ffffff;stroke:#000000;stroke-width:2"
     id="g10"
     transform="matrix(1.0366702,0,0,1.0750501,-0.8008082,-3.383322)">
    <circle
       cx="30"
       cy="38"
       id="ellipse6"
       r="7" />
    <circle
       cx="50"
       cy="38"
       id="ellipse8"
       r="10" />
  </g>
  <g
     style="fill:#000000;stroke:none"
     id="g20"
     transform="matrix(1.0366702,0,0,1.0750501,-0.8008082,-3.383322)">
    <path
       d="m 40,57 c 15,0 16,-3 17,-8 1,7 0,12 -17,8 z"
       id="path12" />
    <circle
       cx="32"
       cy="38"
       id="ellipse14"
       r="4" />
    <circle
       cx="52"
       cy="38"
       id="ellipse16"
       r="6" />
    <path
       d="M 96,72 V 88 L 83,76 c -5,-4 6,-15 13,-4 z"
       id="path18" />
  </g>
  <path
     style="fill:#de872b;stroke:#653a0a;stroke-width:2.11137"
     d="m 58.289388,53.594337 -2.07334,3.22515 17.623392,11.825552 3.11001,-6.450301 z"
     id="path22" />
  <path
     style="fill:#bbbbbb;stroke:#999999;stroke-width:2.11137"
     d="m 75.394445,69.72009 3.110011,-6.450302 8.811695,5.375251 -4.14668,5.375251 z"
     id="path24" />
</svg>
