<?xml version="1.0" encoding="UTF-8" standalone="no"?>
<!-- Uploaded to: SVG Repo, www.svgrepo.com, Generator: SVG Repo Mixer Tools -->

<svg
   width="800px"
   height="800px"
   viewBox="0 0 32 32"
   version="1.1"
   id="svg6"
   sodipodi:docname="prisma.svg"
   inkscape:version="1.1.2 (0a00cf5339, 2022-02-04, custom)"
   xmlns:inkscape="http://www.inkscape.org/namespaces/inkscape"
   xmlns:sodipodi="http://sodipodi.sourceforge.net/DTD/sodipodi-0.dtd"
   xmlns="http://www.w3.org/2000/svg"
   xmlns:svg="http://www.w3.org/2000/svg">
  <defs
     id="defs10" />
  <sodipodi:namedview
     id="namedview8"
     pagecolor="#ffffff"
     bordercolor="#cccccc"
     borderopacity="1"
     inkscape:pageshadow="0"
     inkscape:pageopacity="1"
     inkscape:pagecheckerboard="0"
     showgrid="false"
     inkscape:zoom="1.01"
     inkscape:cx="400"
     inkscape:cy="400.49505"
     inkscape:window-width="1920"
     inkscape:window-height="1001"
     inkscape:window-x="-9"
     inkscape:window-y="-9"
     inkscape:window-maximized="1"
     inkscape:current-layer="svg6" />
  <title
     id="title2">file_type_light_prisma</title>
  <path
     d="M25.21,24.21,12.739,27.928a.525.525,0,0,1-.667-.606L16.528,5.811a.43.43,0,0,1,.809-.094l8.249,17.661A.6.6,0,0,1,25.21,24.21Zm2.139-.878L17.8,2.883h0A1.531,1.531,0,0,0,16.491,2a1.513,1.513,0,0,0-1.4.729L4.736,19.648a1.592,1.592,0,0,0,.018,1.7l5.064,7.909a1.628,1.628,0,0,0,1.83.678l14.7-4.383a1.6,1.6,0,0,0,1-2.218Z"
     style="fill:#000514;fill-rule:evenodd;fill-opacity:1"
     id="path4" />
</svg>
