<?xml version="1.0" encoding="UTF-8" standalone="no"?>
<!-- Uploaded to: SVG Repo, www.svgrepo.com, Generator: SVG Repo Mixer Tools -->

<svg
   width="800px"
   height="800px"
   viewBox="0 0 32 32"
   fill="none"
   version="1.1"
   id="svg6"
   sodipodi:docname="proteus.svg"
   inkscape:version="1.1.2 (0a00cf5339, 2022-02-04, custom)"
   xmlns:inkscape="http://www.inkscape.org/namespaces/inkscape"
   xmlns:sodipodi="http://sodipodi.sourceforge.net/DTD/sodipodi-0.dtd"
   xmlns="http://www.w3.org/2000/svg"
   xmlns:svg="http://www.w3.org/2000/svg">
  <defs
     id="defs10" />
  <sodipodi:namedview
     id="namedview8"
     pagecolor="#ffffff"
     bordercolor="#cccccc"
     borderopacity="1"
     inkscape:pageshadow="0"
     inkscape:pageopacity="1"
     inkscape:pagecheckerboard="0"
     showgrid="false"
     inkscape:zoom="0.505"
     inkscape:cx="51.485148"
     inkscape:cy="187.12871"
     inkscape:window-width="1920"
     inkscape:window-height="1001"
     inkscape:window-x="-9"
     inkscape:window-y="-9"
     inkscape:window-maximized="1"
     inkscape:current-layer="svg6" />
  <path
     d="m 18.520484,15.9759 c 0,-1.4344 -1.1993,-2.5974 -2.6789,-2.5974 -1.4794,0 -2.6789,1.163 -2.6789,2.5974 0,1.4346 1.1995,2.5975 2.6789,2.5975 1.4796,0 2.6789,-1.1629 2.6789,-2.5975 z"
     fill="#53C1DE"
     id="path2"
     style="fill:#4780e9;fill-opacity:1;stroke:none" />
  <path
     fill-rule="evenodd"
     clip-rule="evenodd"
     d="M 25.076512,12.056451 C 25.661871,10.420399 26.397685,7.3865152 23.803766,6.3579318 21.221954,5.3338333 17.862215,7.2961952 16.088131,8.4740981 14.31922,7.3079319 10.865112,5.3539599 8.2733962,6.3858095 5.6925983,7.4133432 6.4884579,10.396926 7.0868141,12.043239 c -2.4074458,0.470279 -6.53436118,1.483213 -6.53436118,3.552756 0,2.063669 4.12262118,3.165713 6.51581838,3.635552 -0.6005706,1.655413 -1.3565818,4.596373 1.2275171,5.621639 2.6014006,1.031651 6.0447476,-0.875822 7.8352846,-2.066607 1.785466,1.18484 5.112921,3.10479 7.695251,2.076663 2.590399,-1.031358 1.915741,-4.024579 1.317343,-5.680432 2.319916,-0.470868 6.451374,-1.548909 6.451374,-3.586815 0,-2.049651 -4.149048,-3.070806 -6.518529,-3.539544 z M 24.782435,18.3053 c -0.392896,-0.855416 -0.923207,-1.765074 -1.571893,-2.704755 0.619196,-0.917513 1.128915,-1.815427 1.510843,-2.665338 1.737039,0.34638 5.54762,1.13801 5.54762,2.660788 0,1.537091 -3.656712,2.336208 -5.48657,2.709305 z m -1.62063,5.768587 c -1.92671,0.76704 -4.788733,-1.069013 -6.107319,-1.941531 0.874781,-0.658041 1.74894,-1.423026 2.602094,-2.272496 1.500805,-0.09153 2.918521,-0.241269 4.204304,-0.445691 0.421145,1.171261 1.236116,3.889227 -0.699079,4.659718 z M 8.9583923,24.06295 C 7.0314858,23.298772 7.9122157,20.674391 8.3540449,19.45498 c 1.2714741,0.193486 2.6790071,0.332653 4.1833311,0.416551 0.858741,0.831193 1.758253,1.595225 2.664696,2.264348 -1.119913,0.745094 -4.30778,2.694773 -6.2436797,1.927071 z M 1.8784785,15.595995 c 0,-1.542817 3.7877957,-2.328721 5.5644355,-2.67422 0.3885186,0.868995 0.8980723,1.777626 1.5130053,2.69646 C 8.3330187,16.550722 7.8161804,17.473739 7.4240917,18.35301 5.7300357,18.019476 1.8784785,17.139765 1.8784785,15.595995 Z M 8.9377801,7.1751643 C 10.872562,6.4049085 13.874588,8.2807966 15.158922,9.1251286 14.257136,9.7911768 13.365902,10.549454 12.514509,11.375876 11.054575,11.468948 9.6569859,11.618393 8.3721737,11.818631 7.8901445,10.490813 7.0050893,7.9445905 8.9377801,7.1751643 Z M 20.605241,12.36723 c 0.990465,0.08595 1.939437,0.200312 2.830463,0.340214 -0.267484,0.589703 -0.600881,1.206346 -0.99357,1.838475 -0.569217,-0.742818 -1.180239,-1.470736 -1.836893,-2.178689 z M 16.088544,9.7769077 c 0.611643,0.4557253 1.224217,0.9646363 1.826857,1.5167583 -1.222354,-0.03978 -2.446674,-0.03993 -3.669027,-5.86e-4 0.603158,-0.546999 1.221008,-1.055155 1.84217,-1.5161723 z M 9.7167429,14.545259 C 9.3305617,13.915332 9.000155,13.295973 8.7303328,12.697828 c 0.885708,-0.136305 1.8302512,-0.247729 2.8143012,-0.332287 -0.658517,0.706412 -1.268503,1.434037 -1.8278911,2.179718 z m 1.8561401,4.346295 c -1.016541,-0.07802 -1.975385,-0.183797 -2.8608239,-0.316359 0.2740853,-0.608641 0.6117664,-1.241357 1.0061946,-1.884865 0.5670853,0.753462 1.1863853,1.488133 1.8546293,2.201224 z m 4.552396,2.587973 c -0.62851,-0.466463 -1.255467,-0.982399 -1.86773,-1.537311 1.229287,0.03317 2.460953,0.03325 3.690136,-0.0045 -0.604502,0.565041 -1.214904,1.081711 -1.822406,1.541788 z m 6.329479,-4.821934 c 0.414936,0.65048 0.764682,1.279747 1.042514,1.878113 -0.900132,0.141297 -1.871868,0.255068 -2.895756,0.339553 0.661517,-0.721386 1.282266,-1.460607 1.853242,-2.217666 z m -3.538234,2.328208 c -1.880353,0.09241 -3.772398,0.09138 -5.653372,0.0076 -1.068796,-1.073784 -2.020251,-2.203059 -2.841535,-3.37542 0.817351,-1.169939 1.761874,-2.297012 2.825599,-3.369106 1.88232,-0.09784 3.776228,-0.09814 5.658547,5.87e-4 1.05462,1.072021 1.997694,2.196158 2.833981,3.355527 -0.826354,1.169352 -1.775842,2.2987 -2.82322,3.380852 z M 23.14142,7.1480499 C 25.076719,7.9157806 24.215287,10.642424 23.792487,11.8281 22.504633,11.623678 21.106062,11.47159 19.641886,11.37705 18.788836,10.541702 17.905053,9.7821045 17.017856,9.1246588 18.318644,8.262138 21.224851,6.3878281 23.14142,7.1480499 Z"
     fill="#53c1de"
     id="path4"
     style="fill:#999999;stroke:none;stroke-width:0.536846;stroke-miterlimit:4;stroke-dasharray:none;stroke-opacity:1" />
  <path
     d="m 9.6506514,6.7395207 c 0,-0.7230153 -0.5724481,-1.3092304 -1.2786885,-1.3092304 -0.706145,0 -1.2786886,0.5862151 -1.2786886,1.3092304 0,0.7231161 0.5725436,1.3092806 1.2786886,1.3092806 0.7062404,0 1.2786885,-0.5861645 1.2786885,-1.3092806 z"
     fill="#53C1DE"
     id="path2-3"
     style="fill:#ffd42a;fill-opacity:1;stroke:none;stroke-width:0.490504" />
  <path
     d="m 8.9583923,24.06295 c 0,-0.723016 -0.5724482,-1.309231 -1.2786885,-1.309231 -0.7061451,0 -1.2786887,0.586215 -1.2786887,1.309231 0,0.723116 0.5725436,1.30928 1.2786887,1.30928 0.7062404,0 1.2786885,-0.586164 1.2786885,-1.30928 z"
     fill="#53C1DE"
     id="path2-3-3"
     style="fill:#ffd42a;fill-opacity:1;stroke:none;stroke-width:0.490504" />
  <path
     d="m 25.357896,7.0494799 c 0,-0.7230153 -0.572448,-1.3092304 -1.278688,-1.3092304 -0.706145,0 -1.278689,0.5862151 -1.278689,1.3092304 0,0.7231161 0.572544,1.3092806 1.278689,1.3092806 0.70624,0 1.278688,-0.5861645 1.278688,-1.3092806 z"
     fill="#53C1DE"
     id="path2-3-39"
     style="fill:#ffd42a;fill-opacity:1;stroke:none;stroke-width:0.490504" />
  <path
     d="m 25.674728,23.999975 c 0,-0.723015 -0.572448,-1.30923 -1.278688,-1.30923 -0.706145,0 -1.278689,0.586215 -1.278689,1.30923 0,0.723116 0.572544,1.309281 1.278689,1.309281 0.70624,0 1.278688,-0.586165 1.278688,-1.309281 z"
     fill="#53C1DE"
     id="path2-3-8"
     style="fill:#ffd42a;fill-opacity:1;stroke:none;stroke-width:0.490504" />
</svg>
